<mxfile host="app.diagrams.net" agent="Mozilla/5.0 (X11; Linux x86_64) AppleWebKit/537.36 (KHTML, like Gecko) Chrome/130.0.0.0 Safari/537.36" version="24.8.3" pages="9">
  <diagram name="FIFO-Multi" id="fc2ac565-0d4e-3f0d-88b0-a54af1634ed7">
    <mxGraphModel dx="1909" dy="1029" grid="1" gridSize="10" guides="1" tooltips="1" connect="0" arrows="1" fold="1" page="1" pageScale="1.5" pageWidth="1169" pageHeight="827" background="none" math="0" shadow="0">
      <root>
        <mxCell id="0" style=";html=1;" />
        <mxCell id="1" style=";html=1;" parent="0" />
        <mxCell id="75" value="0" style="align=center;strokeColor=#000000;html=1;" parent="1" vertex="1">
          <mxGeometry x="537" y="150" width="80" height="20" as="geometry" />
        </mxCell>
        <mxCell id="80" value="0" style="align=center;strokeColor=#000000;html=1;" parent="1" vertex="1">
          <mxGeometry x="537" y="170" width="80" height="20" as="geometry" />
        </mxCell>
        <mxCell id="85" value="0" style="align=center;strokeColor=#000000;html=1;" parent="1" vertex="1">
          <mxGeometry x="537" y="190" width="80" height="20" as="geometry" />
        </mxCell>
        <mxCell id="90" value="0" style="align=center;strokeColor=#000000;html=1;" parent="1" vertex="1">
          <mxGeometry x="537" y="210" width="80" height="20" as="geometry" />
        </mxCell>
        <mxCell id="2" value="SubmissÃ£o" style="strokeWidth=1;fontStyle=0;html=1;" parent="1" vertex="1">
          <mxGeometry x="537" y="130" width="80" height="20" as="geometry" />
        </mxCell>
        <mxCell id="67c90442a009f359-291" value="" style="align=left;strokeColor=#000000;html=1;" parent="1" vertex="1">
          <mxGeometry x="617" y="150" width="1393" height="20" as="geometry" />
        </mxCell>
        <mxCell id="4" value="T1" style="strokeWidth=1;fontStyle=0;html=1;" parent="1" vertex="1">
          <mxGeometry x="617" y="130" width="70" height="20" as="geometry" />
        </mxCell>
        <mxCell id="67c90442a009f359-278" value="T2" style="strokeWidth=1;fontStyle=0;html=1;" parent="1" vertex="1">
          <mxGeometry x="687" y="130" width="70" height="20" as="geometry" />
        </mxCell>
        <mxCell id="67c90442a009f359-279" value="T3" style="strokeWidth=1;fontStyle=0;html=1;" parent="1" vertex="1">
          <mxGeometry x="757" y="130" width="70" height="20" as="geometry" />
        </mxCell>
        <mxCell id="67c90442a009f359-280" value="T4" style="strokeWidth=1;fontStyle=0;html=1;" parent="1" vertex="1">
          <mxGeometry x="827" y="130" width="70" height="20" as="geometry" />
        </mxCell>
        <mxCell id="67c90442a009f359-281" value="T5" style="strokeWidth=1;fontStyle=0;html=1;" parent="1" vertex="1">
          <mxGeometry x="897" y="130" width="70" height="20" as="geometry" />
        </mxCell>
        <mxCell id="67c90442a009f359-282" value="T6" style="strokeWidth=1;fontStyle=0;html=1;" parent="1" vertex="1">
          <mxGeometry x="967" y="130" width="70" height="20" as="geometry" />
        </mxCell>
        <mxCell id="67c90442a009f359-283" value="T7" style="strokeWidth=1;fontStyle=0;html=1;" parent="1" vertex="1">
          <mxGeometry x="1037" y="130" width="70" height="20" as="geometry" />
        </mxCell>
        <mxCell id="67c90442a009f359-284" value="T8" style="strokeWidth=1;fontStyle=0;html=1;" parent="1" vertex="1">
          <mxGeometry x="1107" y="130" width="70" height="20" as="geometry" />
        </mxCell>
        <mxCell id="67c90442a009f359-285" value="T9" style="strokeWidth=1;fontStyle=0;html=1;" parent="1" vertex="1">
          <mxGeometry x="1177" y="130" width="70" height="20" as="geometry" />
        </mxCell>
        <mxCell id="67c90442a009f359-286" value="T10" style="strokeWidth=1;fontStyle=0;html=1;" parent="1" vertex="1">
          <mxGeometry x="1247" y="130" width="70" height="20" as="geometry" />
        </mxCell>
        <mxCell id="67c90442a009f359-287" value="T11" style="strokeWidth=1;fontStyle=0;html=1;" parent="1" vertex="1">
          <mxGeometry x="1317" y="130" width="70" height="20" as="geometry" />
        </mxCell>
        <mxCell id="67c90442a009f359-288" value="T12" style="strokeWidth=1;fontStyle=0;html=1;" parent="1" vertex="1">
          <mxGeometry x="1387" y="130" width="70" height="20" as="geometry" />
        </mxCell>
        <mxCell id="67c90442a009f359-292" value="" style="align=left;strokeColor=#000000;html=1;" parent="1" vertex="1">
          <mxGeometry x="617" y="170" width="1393" height="20" as="geometry" />
        </mxCell>
        <mxCell id="67c90442a009f359-293" value="" style="align=left;strokeColor=#000000;html=1;" parent="1" vertex="1">
          <mxGeometry x="617" y="190" width="1393" height="20" as="geometry" />
        </mxCell>
        <mxCell id="67c90442a009f359-294" value="" style="align=left;strokeColor=#000000;html=1;" parent="1" vertex="1">
          <mxGeometry x="617" y="210" width="1393" height="20" as="geometry" />
        </mxCell>
        <mxCell id="nfqxl3-7Gxuho9Ns0Rub-100" value="P1" style="align=center;strokeColor=#000000;html=1;" vertex="1" parent="1">
          <mxGeometry x="380" y="150" width="80" height="20" as="geometry" />
        </mxCell>
        <mxCell id="nfqxl3-7Gxuho9Ns0Rub-101" value="P2" style="align=center;strokeColor=#000000;html=1;" vertex="1" parent="1">
          <mxGeometry x="380" y="170" width="80" height="20" as="geometry" />
        </mxCell>
        <mxCell id="nfqxl3-7Gxuho9Ns0Rub-102" value="P3" style="align=center;strokeColor=#000000;html=1;" vertex="1" parent="1">
          <mxGeometry x="380" y="190" width="80" height="20" as="geometry" />
        </mxCell>
        <mxCell id="nfqxl3-7Gxuho9Ns0Rub-103" value="P4" style="align=center;strokeColor=#000000;html=1;" vertex="1" parent="1">
          <mxGeometry x="380" y="210" width="80" height="20" as="geometry" />
        </mxCell>
        <mxCell id="nfqxl3-7Gxuho9Ns0Rub-106" value="Processo" style="strokeWidth=1;fontStyle=0;html=1;" vertex="1" parent="1">
          <mxGeometry x="380" y="130" width="80" height="20" as="geometry" />
        </mxCell>
        <mxCell id="nfqxl3-7Gxuho9Ns0Rub-109" value="1" style="align=center;strokeColor=#000000;html=1;" vertex="1" parent="1">
          <mxGeometry x="460" y="150" width="77" height="20" as="geometry" />
        </mxCell>
        <mxCell id="nfqxl3-7Gxuho9Ns0Rub-110" value="1" style="align=center;strokeColor=#000000;html=1;" vertex="1" parent="1">
          <mxGeometry x="460" y="170" width="77" height="20" as="geometry" />
        </mxCell>
        <mxCell id="nfqxl3-7Gxuho9Ns0Rub-111" value="1" style="align=center;strokeColor=#000000;html=1;" vertex="1" parent="1">
          <mxGeometry x="460" y="190" width="77" height="20" as="geometry" />
        </mxCell>
        <mxCell id="nfqxl3-7Gxuho9Ns0Rub-112" value="1" style="align=center;strokeColor=#000000;html=1;" vertex="1" parent="1">
          <mxGeometry x="460" y="210" width="77" height="20" as="geometry" />
        </mxCell>
        <mxCell id="nfqxl3-7Gxuho9Ns0Rub-115" value="Prioridade" style="strokeWidth=1;fontStyle=0;html=1;" vertex="1" parent="1">
          <mxGeometry x="460" y="130" width="77" height="20" as="geometry" />
        </mxCell>
        <mxCell id="nfqxl3-7Gxuho9Ns0Rub-118" value="T13" style="strokeWidth=1;fontStyle=0;html=1;" vertex="1" parent="1">
          <mxGeometry x="1450" y="130" width="70" height="20" as="geometry" />
        </mxCell>
        <mxCell id="nfqxl3-7Gxuho9Ns0Rub-119" value="T14" style="strokeWidth=1;fontStyle=0;html=1;" vertex="1" parent="1">
          <mxGeometry x="1520" y="130" width="70" height="20" as="geometry" />
        </mxCell>
        <mxCell id="nfqxl3-7Gxuho9Ns0Rub-120" value="T15" style="strokeWidth=1;fontStyle=0;html=1;" vertex="1" parent="1">
          <mxGeometry x="1590" y="130" width="70" height="20" as="geometry" />
        </mxCell>
        <mxCell id="nfqxl3-7Gxuho9Ns0Rub-121" value="T16" style="strokeWidth=1;fontStyle=0;html=1;" vertex="1" parent="1">
          <mxGeometry x="1660" y="130" width="70" height="20" as="geometry" />
        </mxCell>
        <mxCell id="nfqxl3-7Gxuho9Ns0Rub-122" value="T17" style="strokeWidth=1;fontStyle=0;html=1;" vertex="1" parent="1">
          <mxGeometry x="1730" y="130" width="70" height="20" as="geometry" />
        </mxCell>
        <mxCell id="nfqxl3-7Gxuho9Ns0Rub-123" value="T18" style="strokeWidth=1;fontStyle=0;html=1;" vertex="1" parent="1">
          <mxGeometry x="1800" y="130" width="70" height="20" as="geometry" />
        </mxCell>
        <mxCell id="nfqxl3-7Gxuho9Ns0Rub-124" value="T19" style="strokeWidth=1;fontStyle=0;html=1;" vertex="1" parent="1">
          <mxGeometry x="1870" y="130" width="70" height="20" as="geometry" />
        </mxCell>
        <mxCell id="nfqxl3-7Gxuho9Ns0Rub-125" value="T20" style="strokeWidth=1;fontStyle=0;html=1;" vertex="1" parent="1">
          <mxGeometry x="1940" y="130" width="70" height="20" as="geometry" />
        </mxCell>
        <mxCell id="nfqxl3-7Gxuho9Ns0Rub-128" value="" style="strokeWidth=1;fontStyle=0;html=1;fillColor=#0050ef;fontColor=#ffffff;strokeColor=#000000;" vertex="1" parent="1">
          <mxGeometry x="617" y="150" width="70" height="20" as="geometry" />
        </mxCell>
        <mxCell id="nfqxl3-7Gxuho9Ns0Rub-129" value="" style="strokeWidth=1;fontStyle=0;html=1;fillColor=#0050ef;fontColor=#ffffff;strokeColor=#000000;" vertex="1" parent="1">
          <mxGeometry x="687" y="150" width="70" height="20" as="geometry" />
        </mxCell>
        <mxCell id="nfqxl3-7Gxuho9Ns0Rub-130" value="" style="strokeWidth=1;fontStyle=0;html=1;fillColor=#e3c800;fontColor=#000000;strokeColor=#000000;" vertex="1" parent="1">
          <mxGeometry x="757" y="150" width="70" height="20" as="geometry" />
        </mxCell>
        <mxCell id="nfqxl3-7Gxuho9Ns0Rub-131" value="" style="strokeWidth=1;fontStyle=0;html=1;fillColor=#e3c800;fontColor=#000000;strokeColor=#000000;" vertex="1" parent="1">
          <mxGeometry x="827" y="150" width="70" height="20" as="geometry" />
        </mxCell>
        <mxCell id="nfqxl3-7Gxuho9Ns0Rub-132" value="" style="strokeWidth=1;fontStyle=0;html=1;fillColor=#0050ef;fontColor=#ffffff;strokeColor=#000000;" vertex="1" parent="1">
          <mxGeometry x="757" y="170" width="70" height="20" as="geometry" />
        </mxCell>
        <mxCell id="nfqxl3-7Gxuho9Ns0Rub-133" value="" style="strokeWidth=1;fontStyle=0;html=1;fillColor=#0050ef;fontColor=#ffffff;strokeColor=#000000;" vertex="1" parent="1">
          <mxGeometry x="827" y="170" width="70" height="20" as="geometry" />
        </mxCell>
        <mxCell id="nfqxl3-7Gxuho9Ns0Rub-134" value="" style="strokeWidth=1;fontStyle=0;html=1;fillColor=#0050ef;fontColor=#ffffff;strokeColor=#000000;" vertex="1" parent="1">
          <mxGeometry x="897" y="170" width="70" height="20" as="geometry" />
        </mxCell>
        <mxCell id="nfqxl3-7Gxuho9Ns0Rub-135" value="" style="strokeWidth=1;fontStyle=0;html=1;fillColor=#0050ef;fontColor=#ffffff;strokeColor=#000000;" vertex="1" parent="1">
          <mxGeometry x="967" y="170" width="70" height="20" as="geometry" />
        </mxCell>
        <mxCell id="nfqxl3-7Gxuho9Ns0Rub-136" value="" style="strokeWidth=1;fontStyle=0;html=1;fillColor=#0050ef;fontColor=#ffffff;strokeColor=#000000;" vertex="1" parent="1">
          <mxGeometry x="1037" y="170" width="70" height="20" as="geometry" />
        </mxCell>
        <mxCell id="nfqxl3-7Gxuho9Ns0Rub-137" value="" style="strokeWidth=1;fontStyle=0;html=1;fillColor=#e3c800;fontColor=#000000;strokeColor=#000000;" vertex="1" parent="1">
          <mxGeometry x="1107" y="170" width="70" height="20" as="geometry" />
        </mxCell>
        <mxCell id="nfqxl3-7Gxuho9Ns0Rub-138" value="" style="strokeWidth=1;fontStyle=0;html=1;fillColor=#0050ef;fontColor=#ffffff;strokeColor=#000000;" vertex="1" parent="1">
          <mxGeometry x="1107" y="190" width="70" height="20" as="geometry" />
        </mxCell>
        <mxCell id="nfqxl3-7Gxuho9Ns0Rub-139" value="" style="strokeWidth=1;fontStyle=0;html=1;fillColor=#0050ef;fontColor=#ffffff;strokeColor=#000000;" vertex="1" parent="1">
          <mxGeometry x="1177" y="190" width="70" height="20" as="geometry" />
        </mxCell>
        <mxCell id="nfqxl3-7Gxuho9Ns0Rub-140" value="" style="strokeWidth=1;fontStyle=0;html=1;fillColor=#0050ef;fontColor=#ffffff;strokeColor=#000000;" vertex="1" parent="1">
          <mxGeometry x="1247" y="190" width="70" height="20" as="geometry" />
        </mxCell>
        <mxCell id="nfqxl3-7Gxuho9Ns0Rub-141" value="" style="strokeWidth=1;fontStyle=0;html=1;fillColor=#0050ef;fontColor=#ffffff;strokeColor=#000000;" vertex="1" parent="1">
          <mxGeometry x="1317" y="190" width="70" height="20" as="geometry" />
        </mxCell>
        <mxCell id="nfqxl3-7Gxuho9Ns0Rub-142" value="" style="strokeWidth=1;fontStyle=0;html=1;fillColor=#0050ef;fontColor=#ffffff;strokeColor=#000000;" vertex="1" parent="1">
          <mxGeometry x="1387" y="210" width="70" height="20" as="geometry" />
        </mxCell>
        <mxCell id="nfqxl3-7Gxuho9Ns0Rub-143" value="" style="strokeWidth=1;fontStyle=0;html=1;fillColor=#0050ef;fontColor=#ffffff;strokeColor=#000000;" vertex="1" parent="1">
          <mxGeometry x="1457" y="210" width="70" height="20" as="geometry" />
        </mxCell>
        <mxCell id="nfqxl3-7Gxuho9Ns0Rub-144" value="" style="strokeWidth=1;fontStyle=0;html=1;fillColor=#0050ef;fontColor=#ffffff;strokeColor=#000000;" vertex="1" parent="1">
          <mxGeometry x="1527" y="210" width="70" height="20" as="geometry" />
        </mxCell>
        <mxCell id="nfqxl3-7Gxuho9Ns0Rub-145" value="" style="strokeWidth=1;fontStyle=0;html=1;fillColor=#0050ef;fontColor=#ffffff;strokeColor=#000000;" vertex="1" parent="1">
          <mxGeometry x="1597" y="210" width="70" height="20" as="geometry" />
        </mxCell>
        <mxCell id="nfqxl3-7Gxuho9Ns0Rub-146" value="" style="strokeWidth=1;fontStyle=0;html=1;fillColor=#e3c800;fontColor=#000000;strokeColor=#000000;" vertex="1" parent="1">
          <mxGeometry x="1387" y="190" width="70" height="20" as="geometry" />
        </mxCell>
        <mxCell id="nfqxl3-7Gxuho9Ns0Rub-147" value="" style="strokeWidth=1;fontStyle=0;html=1;fillColor=#e3c800;fontColor=#000000;strokeColor=#000000;" vertex="1" parent="1">
          <mxGeometry x="1457" y="190" width="70" height="20" as="geometry" />
        </mxCell>
        <mxCell id="nfqxl3-7Gxuho9Ns0Rub-148" value="" style="strokeWidth=1;fontStyle=0;html=1;fillColor=#0050ef;fontColor=#ffffff;strokeColor=#000000;" vertex="1" parent="1">
          <mxGeometry x="1660" y="150" width="70" height="20" as="geometry" />
        </mxCell>
        <mxCell id="nfqxl3-7Gxuho9Ns0Rub-149" value="" style="strokeWidth=1;fontStyle=0;html=1;fillColor=#e3c800;fontColor=#000000;strokeColor=#000000;" vertex="1" parent="1">
          <mxGeometry x="1730" y="150" width="70" height="20" as="geometry" />
        </mxCell>
        <mxCell id="nfqxl3-7Gxuho9Ns0Rub-150" value="" style="strokeWidth=1;fontStyle=0;html=1;fillColor=#0050ef;fontColor=#ffffff;strokeColor=#000000;" vertex="1" parent="1">
          <mxGeometry x="1730" y="170" width="70" height="20" as="geometry" />
        </mxCell>
        <mxCell id="nfqxl3-7Gxuho9Ns0Rub-151" value="" style="strokeWidth=1;fontStyle=0;html=1;fillColor=#0050ef;fontColor=#ffffff;strokeColor=#000000;" vertex="1" parent="1">
          <mxGeometry x="1800" y="190" width="70" height="20" as="geometry" />
        </mxCell>
        <mxCell id="nfqxl3-7Gxuho9Ns0Rub-152" value="" style="strokeWidth=1;fontStyle=0;html=1;fillColor=#0050ef;fontColor=#ffffff;strokeColor=#000000;" vertex="1" parent="1">
          <mxGeometry x="1870" y="190" width="70" height="20" as="geometry" />
        </mxCell>
        <mxCell id="nfqxl3-7Gxuho9Ns0Rub-153" value="" style="strokeWidth=1;fontStyle=0;html=1;fillColor=#0050ef;fontColor=#ffffff;strokeColor=#000000;" vertex="1" parent="1">
          <mxGeometry x="1940" y="150" width="70" height="20" as="geometry" />
        </mxCell>
        <mxCell id="nfqxl3-7Gxuho9Ns0Rub-154" value="CPU" style="strokeWidth=1;fontStyle=0;html=1;fillColor=#0050ef;fontColor=#ffffff;strokeColor=#000000;" vertex="1" parent="1">
          <mxGeometry x="380" y="260" width="70" height="20" as="geometry" />
        </mxCell>
        <mxCell id="nfqxl3-7Gxuho9Ns0Rub-155" value="IO" style="strokeWidth=1;fontStyle=0;html=1;fillColor=#e3c800;fontColor=#000000;strokeColor=#000000;" vertex="1" parent="1">
          <mxGeometry x="380" y="280" width="70" height="20" as="geometry" />
        </mxCell>
      </root>
    </mxGraphModel>
  </diagram>
  <diagram id="AZ4wh8D0GnXiRSbmsAJ1" name="FIFO-Mono">
    <mxGraphModel dx="2100" dy="1132" grid="1" gridSize="10" guides="1" tooltips="1" connect="1" arrows="1" fold="1" page="1" pageScale="1" pageWidth="850" pageHeight="1100" math="0" shadow="0">
      <root>
        <mxCell id="0" />
        <mxCell id="1" parent="0" />
        <mxCell id="nauchLCVrAHLSngJsu0S-1" value="0" style="align=center;strokeColor=#000000;html=1;" vertex="1" parent="1">
          <mxGeometry x="547" y="160" width="80" height="20" as="geometry" />
        </mxCell>
        <mxCell id="nauchLCVrAHLSngJsu0S-2" value="0" style="align=center;strokeColor=#000000;html=1;" vertex="1" parent="1">
          <mxGeometry x="547" y="180" width="80" height="20" as="geometry" />
        </mxCell>
        <mxCell id="nauchLCVrAHLSngJsu0S-3" value="0" style="align=center;strokeColor=#000000;html=1;" vertex="1" parent="1">
          <mxGeometry x="547" y="200" width="80" height="20" as="geometry" />
        </mxCell>
        <mxCell id="nauchLCVrAHLSngJsu0S-4" value="0" style="align=center;strokeColor=#000000;html=1;" vertex="1" parent="1">
          <mxGeometry x="547" y="220" width="80" height="20" as="geometry" />
        </mxCell>
        <mxCell id="nauchLCVrAHLSngJsu0S-5" value="SubmissÃ£o" style="strokeWidth=1;fontStyle=0;html=1;" vertex="1" parent="1">
          <mxGeometry x="547" y="140" width="80" height="20" as="geometry" />
        </mxCell>
        <mxCell id="nauchLCVrAHLSngJsu0S-6" value="" style="align=left;strokeColor=#000000;html=1;" vertex="1" parent="1">
          <mxGeometry x="627" y="160" width="1813" height="20" as="geometry" />
        </mxCell>
        <mxCell id="nauchLCVrAHLSngJsu0S-7" value="T1" style="strokeWidth=1;fontStyle=0;html=1;" vertex="1" parent="1">
          <mxGeometry x="627" y="140" width="70" height="20" as="geometry" />
        </mxCell>
        <mxCell id="nauchLCVrAHLSngJsu0S-8" value="T2" style="strokeWidth=1;fontStyle=0;html=1;" vertex="1" parent="1">
          <mxGeometry x="697" y="140" width="70" height="20" as="geometry" />
        </mxCell>
        <mxCell id="nauchLCVrAHLSngJsu0S-9" value="T3" style="strokeWidth=1;fontStyle=0;html=1;" vertex="1" parent="1">
          <mxGeometry x="767" y="140" width="70" height="20" as="geometry" />
        </mxCell>
        <mxCell id="nauchLCVrAHLSngJsu0S-10" value="T4" style="strokeWidth=1;fontStyle=0;html=1;" vertex="1" parent="1">
          <mxGeometry x="837" y="140" width="70" height="20" as="geometry" />
        </mxCell>
        <mxCell id="nauchLCVrAHLSngJsu0S-11" value="T5" style="strokeWidth=1;fontStyle=0;html=1;" vertex="1" parent="1">
          <mxGeometry x="907" y="140" width="70" height="20" as="geometry" />
        </mxCell>
        <mxCell id="nauchLCVrAHLSngJsu0S-12" value="T6" style="strokeWidth=1;fontStyle=0;html=1;" vertex="1" parent="1">
          <mxGeometry x="977" y="140" width="70" height="20" as="geometry" />
        </mxCell>
        <mxCell id="nauchLCVrAHLSngJsu0S-13" value="T7" style="strokeWidth=1;fontStyle=0;html=1;" vertex="1" parent="1">
          <mxGeometry x="1047" y="140" width="70" height="20" as="geometry" />
        </mxCell>
        <mxCell id="nauchLCVrAHLSngJsu0S-14" value="T8" style="strokeWidth=1;fontStyle=0;html=1;" vertex="1" parent="1">
          <mxGeometry x="1117" y="140" width="70" height="20" as="geometry" />
        </mxCell>
        <mxCell id="nauchLCVrAHLSngJsu0S-15" value="T9" style="strokeWidth=1;fontStyle=0;html=1;" vertex="1" parent="1">
          <mxGeometry x="1187" y="140" width="70" height="20" as="geometry" />
        </mxCell>
        <mxCell id="nauchLCVrAHLSngJsu0S-16" value="T10" style="strokeWidth=1;fontStyle=0;html=1;" vertex="1" parent="1">
          <mxGeometry x="1257" y="140" width="70" height="20" as="geometry" />
        </mxCell>
        <mxCell id="nauchLCVrAHLSngJsu0S-17" value="T11" style="strokeWidth=1;fontStyle=0;html=1;" vertex="1" parent="1">
          <mxGeometry x="1327" y="140" width="70" height="20" as="geometry" />
        </mxCell>
        <mxCell id="nauchLCVrAHLSngJsu0S-18" value="T12" style="strokeWidth=1;fontStyle=0;html=1;" vertex="1" parent="1">
          <mxGeometry x="1397" y="140" width="70" height="20" as="geometry" />
        </mxCell>
        <mxCell id="nauchLCVrAHLSngJsu0S-19" value="" style="align=left;strokeColor=#000000;html=1;" vertex="1" parent="1">
          <mxGeometry x="627" y="180" width="1813" height="20" as="geometry" />
        </mxCell>
        <mxCell id="nauchLCVrAHLSngJsu0S-20" value="" style="align=left;strokeColor=#000000;html=1;" vertex="1" parent="1">
          <mxGeometry x="627" y="200" width="1813" height="20" as="geometry" />
        </mxCell>
        <mxCell id="nauchLCVrAHLSngJsu0S-21" value="" style="align=left;strokeColor=#000000;html=1;" vertex="1" parent="1">
          <mxGeometry x="627" y="220" width="1813" height="20" as="geometry" />
        </mxCell>
        <mxCell id="nauchLCVrAHLSngJsu0S-22" value="P1" style="align=center;strokeColor=#000000;html=1;" vertex="1" parent="1">
          <mxGeometry x="390" y="160" width="80" height="20" as="geometry" />
        </mxCell>
        <mxCell id="nauchLCVrAHLSngJsu0S-23" value="P2" style="align=center;strokeColor=#000000;html=1;" vertex="1" parent="1">
          <mxGeometry x="390" y="180" width="80" height="20" as="geometry" />
        </mxCell>
        <mxCell id="nauchLCVrAHLSngJsu0S-24" value="P3" style="align=center;strokeColor=#000000;html=1;" vertex="1" parent="1">
          <mxGeometry x="390" y="200" width="80" height="20" as="geometry" />
        </mxCell>
        <mxCell id="nauchLCVrAHLSngJsu0S-25" value="P4" style="align=center;strokeColor=#000000;html=1;" vertex="1" parent="1">
          <mxGeometry x="390" y="220" width="80" height="20" as="geometry" />
        </mxCell>
        <mxCell id="nauchLCVrAHLSngJsu0S-26" value="Processo" style="strokeWidth=1;fontStyle=0;html=1;" vertex="1" parent="1">
          <mxGeometry x="390" y="140" width="80" height="20" as="geometry" />
        </mxCell>
        <mxCell id="nauchLCVrAHLSngJsu0S-27" value="1" style="align=center;strokeColor=#000000;html=1;" vertex="1" parent="1">
          <mxGeometry x="470" y="160" width="77" height="20" as="geometry" />
        </mxCell>
        <mxCell id="nauchLCVrAHLSngJsu0S-28" value="1" style="align=center;strokeColor=#000000;html=1;" vertex="1" parent="1">
          <mxGeometry x="470" y="180" width="77" height="20" as="geometry" />
        </mxCell>
        <mxCell id="nauchLCVrAHLSngJsu0S-29" value="1" style="align=center;strokeColor=#000000;html=1;" vertex="1" parent="1">
          <mxGeometry x="470" y="200" width="77" height="20" as="geometry" />
        </mxCell>
        <mxCell id="nauchLCVrAHLSngJsu0S-30" value="1" style="align=center;strokeColor=#000000;html=1;" vertex="1" parent="1">
          <mxGeometry x="470" y="220" width="77" height="20" as="geometry" />
        </mxCell>
        <mxCell id="nauchLCVrAHLSngJsu0S-31" value="Prioridade" style="strokeWidth=1;fontStyle=0;html=1;" vertex="1" parent="1">
          <mxGeometry x="470" y="140" width="77" height="20" as="geometry" />
        </mxCell>
        <mxCell id="nauchLCVrAHLSngJsu0S-32" value="T13" style="strokeWidth=1;fontStyle=0;html=1;" vertex="1" parent="1">
          <mxGeometry x="1460" y="140" width="70" height="20" as="geometry" />
        </mxCell>
        <mxCell id="nauchLCVrAHLSngJsu0S-33" value="T14" style="strokeWidth=1;fontStyle=0;html=1;" vertex="1" parent="1">
          <mxGeometry x="1530" y="140" width="70" height="20" as="geometry" />
        </mxCell>
        <mxCell id="nauchLCVrAHLSngJsu0S-34" value="T15" style="strokeWidth=1;fontStyle=0;html=1;" vertex="1" parent="1">
          <mxGeometry x="1600" y="140" width="70" height="20" as="geometry" />
        </mxCell>
        <mxCell id="nauchLCVrAHLSngJsu0S-35" value="T16" style="strokeWidth=1;fontStyle=0;html=1;" vertex="1" parent="1">
          <mxGeometry x="1670" y="140" width="70" height="20" as="geometry" />
        </mxCell>
        <mxCell id="nauchLCVrAHLSngJsu0S-36" value="T17" style="strokeWidth=1;fontStyle=0;html=1;" vertex="1" parent="1">
          <mxGeometry x="1740" y="140" width="70" height="20" as="geometry" />
        </mxCell>
        <mxCell id="nauchLCVrAHLSngJsu0S-37" value="T18" style="strokeWidth=1;fontStyle=0;html=1;" vertex="1" parent="1">
          <mxGeometry x="1810" y="140" width="70" height="20" as="geometry" />
        </mxCell>
        <mxCell id="nauchLCVrAHLSngJsu0S-38" value="T19" style="strokeWidth=1;fontStyle=0;html=1;" vertex="1" parent="1">
          <mxGeometry x="1880" y="140" width="70" height="20" as="geometry" />
        </mxCell>
        <mxCell id="nauchLCVrAHLSngJsu0S-39" value="T20" style="strokeWidth=1;fontStyle=0;html=1;" vertex="1" parent="1">
          <mxGeometry x="1950" y="140" width="70" height="20" as="geometry" />
        </mxCell>
        <mxCell id="nauchLCVrAHLSngJsu0S-40" value="" style="strokeWidth=1;fontStyle=0;html=1;fillColor=#0050ef;fontColor=#ffffff;strokeColor=#000000;" vertex="1" parent="1">
          <mxGeometry x="627" y="160" width="70" height="20" as="geometry" />
        </mxCell>
        <mxCell id="nauchLCVrAHLSngJsu0S-41" value="" style="strokeWidth=1;fontStyle=0;html=1;fillColor=#0050ef;fontColor=#ffffff;strokeColor=#000000;" vertex="1" parent="1">
          <mxGeometry x="697" y="160" width="70" height="20" as="geometry" />
        </mxCell>
        <mxCell id="nauchLCVrAHLSngJsu0S-42" value="" style="strokeWidth=1;fontStyle=0;html=1;fillColor=#e3c800;fontColor=#000000;strokeColor=#000000;" vertex="1" parent="1">
          <mxGeometry x="767" y="160" width="70" height="20" as="geometry" />
        </mxCell>
        <mxCell id="nauchLCVrAHLSngJsu0S-43" value="" style="strokeWidth=1;fontStyle=0;html=1;fillColor=#e3c800;fontColor=#000000;strokeColor=#000000;" vertex="1" parent="1">
          <mxGeometry x="837" y="160" width="70" height="20" as="geometry" />
        </mxCell>
        <mxCell id="nauchLCVrAHLSngJsu0S-60" value="" style="strokeWidth=1;fontStyle=0;html=1;fillColor=#0050ef;fontColor=#ffffff;strokeColor=#000000;" vertex="1" parent="1">
          <mxGeometry x="907" y="160" width="70" height="20" as="geometry" />
        </mxCell>
        <mxCell id="nauchLCVrAHLSngJsu0S-61" value="" style="strokeWidth=1;fontStyle=0;html=1;fillColor=#e3c800;fontColor=#000000;strokeColor=#000000;" vertex="1" parent="1">
          <mxGeometry x="977" y="160" width="70" height="20" as="geometry" />
        </mxCell>
        <mxCell id="nauchLCVrAHLSngJsu0S-65" value="" style="strokeWidth=1;fontStyle=0;html=1;fillColor=#0050ef;fontColor=#ffffff;strokeColor=#000000;" vertex="1" parent="1">
          <mxGeometry x="1047" y="160" width="70" height="20" as="geometry" />
        </mxCell>
        <mxCell id="nauchLCVrAHLSngJsu0S-66" value="CPU" style="strokeWidth=1;fontStyle=0;html=1;fillColor=#0050ef;fontColor=#ffffff;strokeColor=#000000;" vertex="1" parent="1">
          <mxGeometry x="390" y="270" width="70" height="20" as="geometry" />
        </mxCell>
        <mxCell id="nauchLCVrAHLSngJsu0S-67" value="IO" style="strokeWidth=1;fontStyle=0;html=1;fillColor=#e3c800;fontColor=#000000;strokeColor=#000000;" vertex="1" parent="1">
          <mxGeometry x="390" y="290" width="70" height="20" as="geometry" />
        </mxCell>
        <mxCell id="nauchLCVrAHLSngJsu0S-69" value="" style="strokeWidth=1;fontStyle=0;html=1;fillColor=#0050ef;fontColor=#ffffff;strokeColor=#000000;" vertex="1" parent="1">
          <mxGeometry x="1117" y="180" width="70" height="20" as="geometry" />
        </mxCell>
        <mxCell id="nauchLCVrAHLSngJsu0S-70" value="" style="strokeWidth=1;fontStyle=0;html=1;fillColor=#0050ef;fontColor=#ffffff;strokeColor=#000000;" vertex="1" parent="1">
          <mxGeometry x="1187" y="180" width="70" height="20" as="geometry" />
        </mxCell>
        <mxCell id="nauchLCVrAHLSngJsu0S-71" value="" style="strokeWidth=1;fontStyle=0;html=1;fillColor=#0050ef;fontColor=#ffffff;strokeColor=#000000;" vertex="1" parent="1">
          <mxGeometry x="1257" y="180" width="70" height="20" as="geometry" />
        </mxCell>
        <mxCell id="nauchLCVrAHLSngJsu0S-72" value="" style="strokeWidth=1;fontStyle=0;html=1;fillColor=#0050ef;fontColor=#ffffff;strokeColor=#000000;" vertex="1" parent="1">
          <mxGeometry x="1327" y="180" width="70" height="20" as="geometry" />
        </mxCell>
        <mxCell id="nauchLCVrAHLSngJsu0S-73" value="" style="strokeWidth=1;fontStyle=0;html=1;fillColor=#0050ef;fontColor=#ffffff;strokeColor=#000000;" vertex="1" parent="1">
          <mxGeometry x="1397" y="180" width="63" height="20" as="geometry" />
        </mxCell>
        <mxCell id="nauchLCVrAHLSngJsu0S-75" value="" style="strokeWidth=1;fontStyle=0;html=1;fillColor=#e3c800;fontColor=#000000;strokeColor=#000000;" vertex="1" parent="1">
          <mxGeometry x="1460" y="180" width="70" height="20" as="geometry" />
        </mxCell>
        <mxCell id="nauchLCVrAHLSngJsu0S-77" value="" style="strokeWidth=1;fontStyle=0;html=1;fillColor=#0050ef;fontColor=#ffffff;strokeColor=#000000;" vertex="1" parent="1">
          <mxGeometry x="1530" y="180" width="70" height="20" as="geometry" />
        </mxCell>
        <mxCell id="nauchLCVrAHLSngJsu0S-79" value="" style="strokeWidth=1;fontStyle=0;html=1;fillColor=#0050ef;fontColor=#ffffff;strokeColor=#000000;" vertex="1" parent="1">
          <mxGeometry x="1600" y="200" width="70" height="20" as="geometry" />
        </mxCell>
        <mxCell id="nauchLCVrAHLSngJsu0S-80" value="" style="strokeWidth=1;fontStyle=0;html=1;fillColor=#0050ef;fontColor=#ffffff;strokeColor=#000000;" vertex="1" parent="1">
          <mxGeometry x="1670" y="200" width="70" height="20" as="geometry" />
        </mxCell>
        <mxCell id="nauchLCVrAHLSngJsu0S-81" value="" style="strokeWidth=1;fontStyle=0;html=1;fillColor=#0050ef;fontColor=#ffffff;strokeColor=#000000;" vertex="1" parent="1">
          <mxGeometry x="1740" y="200" width="70" height="20" as="geometry" />
        </mxCell>
        <mxCell id="nauchLCVrAHLSngJsu0S-82" value="" style="strokeWidth=1;fontStyle=0;html=1;fillColor=#0050ef;fontColor=#ffffff;strokeColor=#000000;" vertex="1" parent="1">
          <mxGeometry x="1810" y="200" width="70" height="20" as="geometry" />
        </mxCell>
        <mxCell id="nauchLCVrAHLSngJsu0S-83" value="" style="strokeWidth=1;fontStyle=0;html=1;fillColor=#e3c800;fontColor=#000000;strokeColor=#000000;" vertex="1" parent="1">
          <mxGeometry x="1880" y="200" width="70" height="20" as="geometry" />
        </mxCell>
        <mxCell id="nauchLCVrAHLSngJsu0S-84" value="" style="strokeWidth=1;fontStyle=0;html=1;fillColor=#e3c800;fontColor=#000000;strokeColor=#000000;" vertex="1" parent="1">
          <mxGeometry x="1950" y="200" width="70" height="20" as="geometry" />
        </mxCell>
        <mxCell id="nauchLCVrAHLSngJsu0S-86" value="T21" style="strokeWidth=1;fontStyle=0;html=1;" vertex="1" parent="1">
          <mxGeometry x="2020" y="140" width="70" height="20" as="geometry" />
        </mxCell>
        <mxCell id="nauchLCVrAHLSngJsu0S-87" value="T22" style="strokeWidth=1;fontStyle=0;html=1;" vertex="1" parent="1">
          <mxGeometry x="2090" y="140" width="70" height="20" as="geometry" />
        </mxCell>
        <mxCell id="nauchLCVrAHLSngJsu0S-88" value="T23" style="strokeWidth=1;fontStyle=0;html=1;" vertex="1" parent="1">
          <mxGeometry x="2160" y="140" width="70" height="20" as="geometry" />
        </mxCell>
        <mxCell id="nauchLCVrAHLSngJsu0S-89" value="T24" style="strokeWidth=1;fontStyle=0;html=1;" vertex="1" parent="1">
          <mxGeometry x="2230" y="140" width="70" height="20" as="geometry" />
        </mxCell>
        <mxCell id="nauchLCVrAHLSngJsu0S-90" value="T25" style="strokeWidth=1;fontStyle=0;html=1;" vertex="1" parent="1">
          <mxGeometry x="2300" y="140" width="70" height="20" as="geometry" />
        </mxCell>
        <mxCell id="nauchLCVrAHLSngJsu0S-91" value="T26" style="strokeWidth=1;fontStyle=0;html=1;" vertex="1" parent="1">
          <mxGeometry x="2370" y="140" width="70" height="20" as="geometry" />
        </mxCell>
        <mxCell id="nauchLCVrAHLSngJsu0S-92" value="" style="strokeWidth=1;fontStyle=0;html=1;fillColor=#0050ef;fontColor=#ffffff;strokeColor=#000000;" vertex="1" parent="1">
          <mxGeometry x="2020" y="200" width="70" height="20" as="geometry" />
        </mxCell>
        <mxCell id="nauchLCVrAHLSngJsu0S-93" value="" style="strokeWidth=1;fontStyle=0;html=1;fillColor=#0050ef;fontColor=#ffffff;strokeColor=#000000;" vertex="1" parent="1">
          <mxGeometry x="2090" y="200" width="70" height="20" as="geometry" />
        </mxCell>
        <mxCell id="nauchLCVrAHLSngJsu0S-94" value="" style="strokeWidth=1;fontStyle=0;html=1;fillColor=#0050ef;fontColor=#ffffff;strokeColor=#000000;" vertex="1" parent="1">
          <mxGeometry x="2160" y="220" width="70" height="20" as="geometry" />
        </mxCell>
        <mxCell id="nauchLCVrAHLSngJsu0S-95" value="" style="strokeWidth=1;fontStyle=0;html=1;fillColor=#0050ef;fontColor=#ffffff;strokeColor=#000000;" vertex="1" parent="1">
          <mxGeometry x="2230" y="220" width="70" height="20" as="geometry" />
        </mxCell>
        <mxCell id="nauchLCVrAHLSngJsu0S-96" value="" style="strokeWidth=1;fontStyle=0;html=1;fillColor=#0050ef;fontColor=#ffffff;strokeColor=#000000;" vertex="1" parent="1">
          <mxGeometry x="2300" y="220" width="70" height="20" as="geometry" />
        </mxCell>
        <mxCell id="nauchLCVrAHLSngJsu0S-97" value="" style="strokeWidth=1;fontStyle=0;html=1;fillColor=#0050ef;fontColor=#ffffff;strokeColor=#000000;" vertex="1" parent="1">
          <mxGeometry x="2370" y="220" width="70" height="20" as="geometry" />
        </mxCell>
      </root>
    </mxGraphModel>
  </diagram>
  <diagram id="Lq4t9s9TL26J9kYa9vIY" name="Prio-SPremp">
    <mxGraphModel dx="1235" dy="666" grid="1" gridSize="10" guides="1" tooltips="1" connect="1" arrows="1" fold="1" page="1" pageScale="1" pageWidth="850" pageHeight="1100" math="0" shadow="0">
      <root>
        <mxCell id="0" />
        <mxCell id="1" parent="0" />
        <mxCell id="14t8Yg7WUHc-vJofMsHj-1" value="4" style="align=center;strokeColor=#000000;html=1;" vertex="1" parent="1">
          <mxGeometry x="547" y="160" width="80" height="20" as="geometry" />
        </mxCell>
        <mxCell id="14t8Yg7WUHc-vJofMsHj-2" value="2" style="align=center;strokeColor=#000000;html=1;" vertex="1" parent="1">
          <mxGeometry x="547" y="180" width="80" height="20" as="geometry" />
        </mxCell>
        <mxCell id="14t8Yg7WUHc-vJofMsHj-3" value="0" style="align=center;strokeColor=#000000;html=1;" vertex="1" parent="1">
          <mxGeometry x="547" y="200" width="80" height="20" as="geometry" />
        </mxCell>
        <mxCell id="14t8Yg7WUHc-vJofMsHj-5" value="SubmissÃ£o" style="strokeWidth=1;fontStyle=0;html=1;" vertex="1" parent="1">
          <mxGeometry x="547" y="140" width="80" height="20" as="geometry" />
        </mxCell>
        <mxCell id="14t8Yg7WUHc-vJofMsHj-6" value="" style="align=left;strokeColor=#000000;html=1;" vertex="1" parent="1">
          <mxGeometry x="627" y="160" width="1393" height="20" as="geometry" />
        </mxCell>
        <mxCell id="14t8Yg7WUHc-vJofMsHj-7" value="T1" style="strokeWidth=1;fontStyle=0;html=1;" vertex="1" parent="1">
          <mxGeometry x="627" y="140" width="70" height="20" as="geometry" />
        </mxCell>
        <mxCell id="14t8Yg7WUHc-vJofMsHj-8" value="T2" style="strokeWidth=1;fontStyle=0;html=1;" vertex="1" parent="1">
          <mxGeometry x="697" y="140" width="70" height="20" as="geometry" />
        </mxCell>
        <mxCell id="14t8Yg7WUHc-vJofMsHj-9" value="T3" style="strokeWidth=1;fontStyle=0;html=1;" vertex="1" parent="1">
          <mxGeometry x="767" y="140" width="70" height="20" as="geometry" />
        </mxCell>
        <mxCell id="14t8Yg7WUHc-vJofMsHj-10" value="T4" style="strokeWidth=1;fontStyle=0;html=1;" vertex="1" parent="1">
          <mxGeometry x="837" y="140" width="70" height="20" as="geometry" />
        </mxCell>
        <mxCell id="14t8Yg7WUHc-vJofMsHj-11" value="T5" style="strokeWidth=1;fontStyle=0;html=1;" vertex="1" parent="1">
          <mxGeometry x="907" y="140" width="70" height="20" as="geometry" />
        </mxCell>
        <mxCell id="14t8Yg7WUHc-vJofMsHj-12" value="T6" style="strokeWidth=1;fontStyle=0;html=1;" vertex="1" parent="1">
          <mxGeometry x="977" y="140" width="70" height="20" as="geometry" />
        </mxCell>
        <mxCell id="14t8Yg7WUHc-vJofMsHj-13" value="T7" style="strokeWidth=1;fontStyle=0;html=1;" vertex="1" parent="1">
          <mxGeometry x="1047" y="140" width="70" height="20" as="geometry" />
        </mxCell>
        <mxCell id="14t8Yg7WUHc-vJofMsHj-14" value="T8" style="strokeWidth=1;fontStyle=0;html=1;" vertex="1" parent="1">
          <mxGeometry x="1117" y="140" width="70" height="20" as="geometry" />
        </mxCell>
        <mxCell id="14t8Yg7WUHc-vJofMsHj-15" value="T9" style="strokeWidth=1;fontStyle=0;html=1;" vertex="1" parent="1">
          <mxGeometry x="1187" y="140" width="70" height="20" as="geometry" />
        </mxCell>
        <mxCell id="14t8Yg7WUHc-vJofMsHj-16" value="T10" style="strokeWidth=1;fontStyle=0;html=1;" vertex="1" parent="1">
          <mxGeometry x="1257" y="140" width="70" height="20" as="geometry" />
        </mxCell>
        <mxCell id="14t8Yg7WUHc-vJofMsHj-17" value="T11" style="strokeWidth=1;fontStyle=0;html=1;" vertex="1" parent="1">
          <mxGeometry x="1327" y="140" width="70" height="20" as="geometry" />
        </mxCell>
        <mxCell id="14t8Yg7WUHc-vJofMsHj-18" value="T12" style="strokeWidth=1;fontStyle=0;html=1;" vertex="1" parent="1">
          <mxGeometry x="1397" y="140" width="70" height="20" as="geometry" />
        </mxCell>
        <mxCell id="14t8Yg7WUHc-vJofMsHj-19" value="" style="align=left;strokeColor=#000000;html=1;" vertex="1" parent="1">
          <mxGeometry x="627" y="180" width="1393" height="20" as="geometry" />
        </mxCell>
        <mxCell id="14t8Yg7WUHc-vJofMsHj-20" value="" style="align=left;strokeColor=#000000;html=1;" vertex="1" parent="1">
          <mxGeometry x="627" y="200" width="1393" height="20" as="geometry" />
        </mxCell>
        <mxCell id="14t8Yg7WUHc-vJofMsHj-22" value="P1" style="align=center;strokeColor=#000000;html=1;" vertex="1" parent="1">
          <mxGeometry x="390" y="160" width="80" height="20" as="geometry" />
        </mxCell>
        <mxCell id="14t8Yg7WUHc-vJofMsHj-23" value="P2" style="align=center;strokeColor=#000000;html=1;" vertex="1" parent="1">
          <mxGeometry x="390" y="180" width="80" height="20" as="geometry" />
        </mxCell>
        <mxCell id="14t8Yg7WUHc-vJofMsHj-24" value="P3" style="align=center;strokeColor=#000000;html=1;" vertex="1" parent="1">
          <mxGeometry x="390" y="200" width="80" height="20" as="geometry" />
        </mxCell>
        <mxCell id="14t8Yg7WUHc-vJofMsHj-26" value="Processo" style="strokeWidth=1;fontStyle=0;html=1;" vertex="1" parent="1">
          <mxGeometry x="390" y="140" width="80" height="20" as="geometry" />
        </mxCell>
        <mxCell id="14t8Yg7WUHc-vJofMsHj-27" value="7" style="align=center;strokeColor=#000000;html=1;" vertex="1" parent="1">
          <mxGeometry x="470" y="160" width="77" height="20" as="geometry" />
        </mxCell>
        <mxCell id="14t8Yg7WUHc-vJofMsHj-28" value="5" style="align=center;strokeColor=#000000;html=1;" vertex="1" parent="1">
          <mxGeometry x="470" y="180" width="77" height="20" as="geometry" />
        </mxCell>
        <mxCell id="14t8Yg7WUHc-vJofMsHj-29" value="3" style="align=center;strokeColor=#000000;html=1;" vertex="1" parent="1">
          <mxGeometry x="470" y="200" width="77" height="20" as="geometry" />
        </mxCell>
        <mxCell id="14t8Yg7WUHc-vJofMsHj-31" value="Prioridade" style="strokeWidth=1;fontStyle=0;html=1;" vertex="1" parent="1">
          <mxGeometry x="470" y="140" width="77" height="20" as="geometry" />
        </mxCell>
        <mxCell id="14t8Yg7WUHc-vJofMsHj-32" value="T13" style="strokeWidth=1;fontStyle=0;html=1;" vertex="1" parent="1">
          <mxGeometry x="1460" y="140" width="70" height="20" as="geometry" />
        </mxCell>
        <mxCell id="14t8Yg7WUHc-vJofMsHj-33" value="T14" style="strokeWidth=1;fontStyle=0;html=1;" vertex="1" parent="1">
          <mxGeometry x="1530" y="140" width="70" height="20" as="geometry" />
        </mxCell>
        <mxCell id="14t8Yg7WUHc-vJofMsHj-34" value="T15" style="strokeWidth=1;fontStyle=0;html=1;" vertex="1" parent="1">
          <mxGeometry x="1600" y="140" width="70" height="20" as="geometry" />
        </mxCell>
        <mxCell id="14t8Yg7WUHc-vJofMsHj-35" value="T16" style="strokeWidth=1;fontStyle=0;html=1;" vertex="1" parent="1">
          <mxGeometry x="1670" y="140" width="70" height="20" as="geometry" />
        </mxCell>
        <mxCell id="14t8Yg7WUHc-vJofMsHj-36" value="T17" style="strokeWidth=1;fontStyle=0;html=1;" vertex="1" parent="1">
          <mxGeometry x="1740" y="140" width="70" height="20" as="geometry" />
        </mxCell>
        <mxCell id="14t8Yg7WUHc-vJofMsHj-37" value="T18" style="strokeWidth=1;fontStyle=0;html=1;" vertex="1" parent="1">
          <mxGeometry x="1810" y="140" width="70" height="20" as="geometry" />
        </mxCell>
        <mxCell id="14t8Yg7WUHc-vJofMsHj-38" value="T19" style="strokeWidth=1;fontStyle=0;html=1;" vertex="1" parent="1">
          <mxGeometry x="1880" y="140" width="70" height="20" as="geometry" />
        </mxCell>
        <mxCell id="14t8Yg7WUHc-vJofMsHj-39" value="T20" style="strokeWidth=1;fontStyle=0;html=1;" vertex="1" parent="1">
          <mxGeometry x="1950" y="140" width="70" height="20" as="geometry" />
        </mxCell>
        <mxCell id="14t8Yg7WUHc-vJofMsHj-47" value="CPU" style="strokeWidth=1;fontStyle=0;html=1;fillColor=#0050ef;fontColor=#ffffff;strokeColor=#000000;" vertex="1" parent="1">
          <mxGeometry x="390" y="270" width="70" height="20" as="geometry" />
        </mxCell>
        <mxCell id="14t8Yg7WUHc-vJofMsHj-48" value="IO" style="strokeWidth=1;fontStyle=0;html=1;fillColor=#e3c800;fontColor=#000000;strokeColor=#000000;" vertex="1" parent="1">
          <mxGeometry x="390" y="290" width="70" height="20" as="geometry" />
        </mxCell>
        <mxCell id="14t8Yg7WUHc-vJofMsHj-87" value="" style="strokeWidth=1;fontStyle=0;html=1;fillColor=#0050ef;fontColor=#ffffff;strokeColor=#001DBC;" vertex="1" parent="1">
          <mxGeometry x="627" y="200" width="70" height="20" as="geometry" />
        </mxCell>
        <mxCell id="14t8Yg7WUHc-vJofMsHj-88" value="" style="strokeWidth=1;fontStyle=0;html=1;fillColor=#0050ef;fontColor=#ffffff;strokeColor=#001DBC;" vertex="1" parent="1">
          <mxGeometry x="697" y="200" width="70" height="20" as="geometry" />
        </mxCell>
        <mxCell id="14t8Yg7WUHc-vJofMsHj-89" value="" style="strokeWidth=1;fontStyle=0;html=1;fillColor=#0050ef;fontColor=#ffffff;strokeColor=#001DBC;" vertex="1" parent="1">
          <mxGeometry x="767" y="200" width="70" height="20" as="geometry" />
        </mxCell>
        <mxCell id="14t8Yg7WUHc-vJofMsHj-90" value="" style="strokeWidth=1;fontStyle=0;html=1;fillColor=#0050ef;fontColor=#ffffff;strokeColor=#001DBC;" vertex="1" parent="1">
          <mxGeometry x="837" y="200" width="70" height="20" as="geometry" />
        </mxCell>
        <mxCell id="14t8Yg7WUHc-vJofMsHj-91" value="" style="strokeWidth=1;fontStyle=0;html=1;fillColor=#0050ef;fontColor=#ffffff;strokeColor=#001DBC;" vertex="1" parent="1">
          <mxGeometry x="907" y="200" width="70" height="20" as="geometry" />
        </mxCell>
        <mxCell id="14t8Yg7WUHc-vJofMsHj-92" value="" style="strokeWidth=1;fontStyle=0;html=1;fillColor=#0050ef;fontColor=#ffffff;strokeColor=#001DBC;" vertex="1" parent="1">
          <mxGeometry x="977" y="200" width="70" height="20" as="geometry" />
        </mxCell>
        <mxCell id="14t8Yg7WUHc-vJofMsHj-93" value="" style="strokeWidth=1;fontStyle=0;html=1;fillColor=#0050ef;fontColor=#ffffff;strokeColor=#001DBC;" vertex="1" parent="1">
          <mxGeometry x="1047" y="160" width="70" height="20" as="geometry" />
        </mxCell>
        <mxCell id="14t8Yg7WUHc-vJofMsHj-94" value="" style="strokeWidth=1;fontStyle=0;html=1;fillColor=#0050ef;fontColor=#ffffff;strokeColor=#001DBC;" vertex="1" parent="1">
          <mxGeometry x="1117" y="160" width="70" height="20" as="geometry" />
        </mxCell>
        <mxCell id="14t8Yg7WUHc-vJofMsHj-95" value="" style="strokeWidth=1;fontStyle=0;html=1;fillColor=#0050ef;fontColor=#ffffff;strokeColor=#001DBC;" vertex="1" parent="1">
          <mxGeometry x="1187" y="160" width="70" height="20" as="geometry" />
        </mxCell>
        <mxCell id="14t8Yg7WUHc-vJofMsHj-96" value="" style="strokeWidth=1;fontStyle=0;html=1;fillColor=#0050ef;fontColor=#ffffff;strokeColor=#001DBC;" vertex="1" parent="1">
          <mxGeometry x="1257" y="160" width="70" height="20" as="geometry" />
        </mxCell>
        <mxCell id="14t8Yg7WUHc-vJofMsHj-97" value="" style="strokeWidth=1;fontStyle=0;html=1;fillColor=#0050ef;fontColor=#ffffff;strokeColor=#001DBC;" vertex="1" parent="1">
          <mxGeometry x="1327" y="160" width="70" height="20" as="geometry" />
        </mxCell>
        <mxCell id="14t8Yg7WUHc-vJofMsHj-98" value="" style="strokeWidth=1;fontStyle=0;html=1;fillColor=#e3c800;fontColor=#000000;strokeColor=#B09500;" vertex="1" parent="1">
          <mxGeometry x="1397" y="160" width="63" height="20" as="geometry" />
        </mxCell>
        <mxCell id="14t8Yg7WUHc-vJofMsHj-99" value="" style="strokeWidth=1;fontStyle=0;html=1;fillColor=#e3c800;fontColor=#000000;strokeColor=#B09500;" vertex="1" parent="1">
          <mxGeometry x="1460" y="160" width="70" height="20" as="geometry" />
        </mxCell>
        <mxCell id="14t8Yg7WUHc-vJofMsHj-100" value="" style="strokeWidth=1;fontStyle=0;html=1;fillColor=#0050ef;fontColor=#ffffff;strokeColor=#001DBC;" vertex="1" parent="1">
          <mxGeometry x="1397" y="180" width="63" height="20" as="geometry" />
        </mxCell>
        <mxCell id="14t8Yg7WUHc-vJofMsHj-101" value="" style="strokeWidth=1;fontStyle=0;html=1;fillColor=#0050ef;fontColor=#ffffff;strokeColor=#001DBC;" vertex="1" parent="1">
          <mxGeometry x="1460" y="180" width="70" height="20" as="geometry" />
        </mxCell>
        <mxCell id="14t8Yg7WUHc-vJofMsHj-102" value="" style="strokeWidth=1;fontStyle=0;html=1;fillColor=#0050ef;fontColor=#ffffff;strokeColor=#001DBC;" vertex="1" parent="1">
          <mxGeometry x="1530" y="180" width="70" height="20" as="geometry" />
        </mxCell>
        <mxCell id="14t8Yg7WUHc-vJofMsHj-103" value="" style="strokeWidth=1;fontStyle=0;html=1;fillColor=#0050ef;fontColor=#ffffff;strokeColor=#001DBC;" vertex="1" parent="1">
          <mxGeometry x="1600" y="180" width="70" height="20" as="geometry" />
        </mxCell>
        <mxCell id="14t8Yg7WUHc-vJofMsHj-104" value="" style="strokeWidth=1;fontStyle=0;html=1;fillColor=#0050ef;fontColor=#ffffff;strokeColor=#001DBC;" vertex="1" parent="1">
          <mxGeometry x="1670" y="180" width="70" height="20" as="geometry" />
        </mxCell>
        <mxCell id="14t8Yg7WUHc-vJofMsHj-105" value="" style="strokeWidth=1;fontStyle=0;html=1;fillColor=#e3c800;fontColor=#000000;strokeColor=#B09500;" vertex="1" parent="1">
          <mxGeometry x="1740" y="180" width="70" height="20" as="geometry" />
        </mxCell>
        <mxCell id="14t8Yg7WUHc-vJofMsHj-106" value="" style="strokeWidth=1;fontStyle=0;html=1;fillColor=#e3c800;fontColor=#000000;strokeColor=#B09500;" vertex="1" parent="1">
          <mxGeometry x="1810" y="180" width="70" height="20" as="geometry" />
        </mxCell>
        <mxCell id="14t8Yg7WUHc-vJofMsHj-107" value="" style="strokeWidth=1;fontStyle=0;html=1;fillColor=#e3c800;fontColor=#000000;strokeColor=#B09500;" vertex="1" parent="1">
          <mxGeometry x="1880" y="180" width="70" height="20" as="geometry" />
        </mxCell>
        <mxCell id="14t8Yg7WUHc-vJofMsHj-109" value="" style="strokeWidth=1;fontStyle=0;html=1;fillColor=#0050ef;fontColor=#ffffff;strokeColor=#001DBC;" vertex="1" parent="1">
          <mxGeometry x="1740" y="160" width="70" height="20" as="geometry" />
        </mxCell>
        <mxCell id="14t8Yg7WUHc-vJofMsHj-110" value="" style="strokeWidth=1;fontStyle=0;html=1;fillColor=#0050ef;fontColor=#ffffff;strokeColor=#001DBC;" vertex="1" parent="1">
          <mxGeometry x="1810" y="160" width="70" height="20" as="geometry" />
        </mxCell>
        <mxCell id="14t8Yg7WUHc-vJofMsHj-111" value="" style="strokeWidth=1;fontStyle=0;html=1;fillColor=#0050ef;fontColor=#ffffff;strokeColor=#001DBC;" vertex="1" parent="1">
          <mxGeometry x="1950" y="180" width="70" height="20" as="geometry" />
        </mxCell>
      </root>
    </mxGraphModel>
  </diagram>
  <diagram id="pxr49DGFagjSktJrS9pG" name="Prio-Preemp">
    <mxGraphModel dx="724" dy="390" grid="1" gridSize="10" guides="1" tooltips="1" connect="1" arrows="1" fold="1" page="1" pageScale="1" pageWidth="850" pageHeight="1100" math="0" shadow="0">
      <root>
        <mxCell id="0" />
        <mxCell id="1" parent="0" />
        <mxCell id="sEfm3EKMrVG-fRiTKl60-1" value="4" style="align=center;strokeColor=#000000;html=1;" vertex="1" parent="1">
          <mxGeometry x="547" y="160" width="80" height="20" as="geometry" />
        </mxCell>
        <mxCell id="sEfm3EKMrVG-fRiTKl60-2" value="2" style="align=center;strokeColor=#000000;html=1;" vertex="1" parent="1">
          <mxGeometry x="547" y="180" width="80" height="20" as="geometry" />
        </mxCell>
        <mxCell id="sEfm3EKMrVG-fRiTKl60-3" value="0" style="align=center;strokeColor=#000000;html=1;" vertex="1" parent="1">
          <mxGeometry x="547" y="200" width="80" height="20" as="geometry" />
        </mxCell>
        <mxCell id="sEfm3EKMrVG-fRiTKl60-4" value="SubmissÃ£o" style="strokeWidth=1;fontStyle=0;html=1;" vertex="1" parent="1">
          <mxGeometry x="547" y="140" width="80" height="20" as="geometry" />
        </mxCell>
        <mxCell id="sEfm3EKMrVG-fRiTKl60-5" value="" style="align=left;strokeColor=#000000;html=1;" vertex="1" parent="1">
          <mxGeometry x="627" y="160" width="1323" height="20" as="geometry" />
        </mxCell>
        <mxCell id="sEfm3EKMrVG-fRiTKl60-6" value="T1" style="strokeWidth=1;fontStyle=0;html=1;" vertex="1" parent="1">
          <mxGeometry x="627" y="140" width="70" height="20" as="geometry" />
        </mxCell>
        <mxCell id="sEfm3EKMrVG-fRiTKl60-7" value="T2" style="strokeWidth=1;fontStyle=0;html=1;" vertex="1" parent="1">
          <mxGeometry x="697" y="140" width="70" height="20" as="geometry" />
        </mxCell>
        <mxCell id="sEfm3EKMrVG-fRiTKl60-8" value="T3" style="strokeWidth=1;fontStyle=0;html=1;" vertex="1" parent="1">
          <mxGeometry x="767" y="140" width="70" height="20" as="geometry" />
        </mxCell>
        <mxCell id="sEfm3EKMrVG-fRiTKl60-9" value="T4" style="strokeWidth=1;fontStyle=0;html=1;" vertex="1" parent="1">
          <mxGeometry x="837" y="140" width="70" height="20" as="geometry" />
        </mxCell>
        <mxCell id="sEfm3EKMrVG-fRiTKl60-10" value="T5" style="strokeWidth=1;fontStyle=0;html=1;" vertex="1" parent="1">
          <mxGeometry x="907" y="140" width="70" height="20" as="geometry" />
        </mxCell>
        <mxCell id="sEfm3EKMrVG-fRiTKl60-11" value="T6" style="strokeWidth=1;fontStyle=0;html=1;" vertex="1" parent="1">
          <mxGeometry x="977" y="140" width="70" height="20" as="geometry" />
        </mxCell>
        <mxCell id="sEfm3EKMrVG-fRiTKl60-12" value="T7" style="strokeWidth=1;fontStyle=0;html=1;" vertex="1" parent="1">
          <mxGeometry x="1047" y="140" width="70" height="20" as="geometry" />
        </mxCell>
        <mxCell id="sEfm3EKMrVG-fRiTKl60-13" value="T8" style="strokeWidth=1;fontStyle=0;html=1;" vertex="1" parent="1">
          <mxGeometry x="1117" y="140" width="70" height="20" as="geometry" />
        </mxCell>
        <mxCell id="sEfm3EKMrVG-fRiTKl60-14" value="T9" style="strokeWidth=1;fontStyle=0;html=1;" vertex="1" parent="1">
          <mxGeometry x="1187" y="140" width="70" height="20" as="geometry" />
        </mxCell>
        <mxCell id="sEfm3EKMrVG-fRiTKl60-15" value="T10" style="strokeWidth=1;fontStyle=0;html=1;" vertex="1" parent="1">
          <mxGeometry x="1257" y="140" width="70" height="20" as="geometry" />
        </mxCell>
        <mxCell id="sEfm3EKMrVG-fRiTKl60-16" value="T11" style="strokeWidth=1;fontStyle=0;html=1;" vertex="1" parent="1">
          <mxGeometry x="1327" y="140" width="70" height="20" as="geometry" />
        </mxCell>
        <mxCell id="sEfm3EKMrVG-fRiTKl60-17" value="T12" style="strokeWidth=1;fontStyle=0;html=1;" vertex="1" parent="1">
          <mxGeometry x="1397" y="140" width="63" height="20" as="geometry" />
        </mxCell>
        <mxCell id="sEfm3EKMrVG-fRiTKl60-18" value="" style="align=left;strokeColor=#000000;html=1;" vertex="1" parent="1">
          <mxGeometry x="627" y="180" width="1323" height="20" as="geometry" />
        </mxCell>
        <mxCell id="sEfm3EKMrVG-fRiTKl60-19" value="" style="align=left;strokeColor=#000000;html=1;" vertex="1" parent="1">
          <mxGeometry x="627" y="200" width="1323" height="20" as="geometry" />
        </mxCell>
        <mxCell id="sEfm3EKMrVG-fRiTKl60-20" value="P1" style="align=center;strokeColor=#000000;html=1;" vertex="1" parent="1">
          <mxGeometry x="390" y="160" width="80" height="20" as="geometry" />
        </mxCell>
        <mxCell id="sEfm3EKMrVG-fRiTKl60-21" value="P2" style="align=center;strokeColor=#000000;html=1;" vertex="1" parent="1">
          <mxGeometry x="390" y="180" width="80" height="20" as="geometry" />
        </mxCell>
        <mxCell id="sEfm3EKMrVG-fRiTKl60-22" value="P3" style="align=center;strokeColor=#000000;html=1;" vertex="1" parent="1">
          <mxGeometry x="390" y="200" width="80" height="20" as="geometry" />
        </mxCell>
        <mxCell id="sEfm3EKMrVG-fRiTKl60-23" value="Processo" style="strokeWidth=1;fontStyle=0;html=1;" vertex="1" parent="1">
          <mxGeometry x="390" y="140" width="80" height="20" as="geometry" />
        </mxCell>
        <mxCell id="sEfm3EKMrVG-fRiTKl60-24" value="7" style="align=center;strokeColor=#000000;html=1;" vertex="1" parent="1">
          <mxGeometry x="470" y="160" width="77" height="20" as="geometry" />
        </mxCell>
        <mxCell id="sEfm3EKMrVG-fRiTKl60-25" value="5" style="align=center;strokeColor=#000000;html=1;" vertex="1" parent="1">
          <mxGeometry x="470" y="180" width="77" height="20" as="geometry" />
        </mxCell>
        <mxCell id="sEfm3EKMrVG-fRiTKl60-26" value="3" style="align=center;strokeColor=#000000;html=1;" vertex="1" parent="1">
          <mxGeometry x="470" y="200" width="77" height="20" as="geometry" />
        </mxCell>
        <mxCell id="sEfm3EKMrVG-fRiTKl60-27" value="Prioridade" style="strokeWidth=1;fontStyle=0;html=1;" vertex="1" parent="1">
          <mxGeometry x="470" y="140" width="77" height="20" as="geometry" />
        </mxCell>
        <mxCell id="sEfm3EKMrVG-fRiTKl60-28" value="T13" style="strokeWidth=1;fontStyle=0;html=1;" vertex="1" parent="1">
          <mxGeometry x="1460" y="140" width="70" height="20" as="geometry" />
        </mxCell>
        <mxCell id="sEfm3EKMrVG-fRiTKl60-29" value="T14" style="strokeWidth=1;fontStyle=0;html=1;" vertex="1" parent="1">
          <mxGeometry x="1530" y="140" width="70" height="20" as="geometry" />
        </mxCell>
        <mxCell id="sEfm3EKMrVG-fRiTKl60-30" value="T15" style="strokeWidth=1;fontStyle=0;html=1;" vertex="1" parent="1">
          <mxGeometry x="1600" y="140" width="70" height="20" as="geometry" />
        </mxCell>
        <mxCell id="sEfm3EKMrVG-fRiTKl60-31" value="T16" style="strokeWidth=1;fontStyle=0;html=1;" vertex="1" parent="1">
          <mxGeometry x="1670" y="140" width="70" height="20" as="geometry" />
        </mxCell>
        <mxCell id="sEfm3EKMrVG-fRiTKl60-32" value="T17" style="strokeWidth=1;fontStyle=0;html=1;" vertex="1" parent="1">
          <mxGeometry x="1740" y="140" width="70" height="20" as="geometry" />
        </mxCell>
        <mxCell id="sEfm3EKMrVG-fRiTKl60-33" value="T18" style="strokeWidth=1;fontStyle=0;html=1;" vertex="1" parent="1">
          <mxGeometry x="1810" y="140" width="70" height="20" as="geometry" />
        </mxCell>
        <mxCell id="sEfm3EKMrVG-fRiTKl60-34" value="T19" style="strokeWidth=1;fontStyle=0;html=1;" vertex="1" parent="1">
          <mxGeometry x="1880" y="140" width="70" height="20" as="geometry" />
        </mxCell>
        <mxCell id="sEfm3EKMrVG-fRiTKl60-36" value="CPU" style="strokeWidth=1;fontStyle=0;html=1;fillColor=#0050ef;fontColor=#ffffff;strokeColor=#000000;" vertex="1" parent="1">
          <mxGeometry x="390" y="270" width="70" height="20" as="geometry" />
        </mxCell>
        <mxCell id="sEfm3EKMrVG-fRiTKl60-37" value="IO" style="strokeWidth=1;fontStyle=0;html=1;fillColor=#e3c800;fontColor=#000000;strokeColor=#000000;" vertex="1" parent="1">
          <mxGeometry x="390" y="290" width="70" height="20" as="geometry" />
        </mxCell>
        <mxCell id="sEfm3EKMrVG-fRiTKl60-69" value="" style="strokeWidth=1;fontStyle=0;html=1;fillColor=#0050ef;fontColor=#ffffff;strokeColor=#001DBC;" vertex="1" parent="1">
          <mxGeometry x="627" y="200" width="70" height="20" as="geometry" />
        </mxCell>
        <mxCell id="sEfm3EKMrVG-fRiTKl60-70" value="" style="strokeWidth=1;fontStyle=0;html=1;fillColor=#0050ef;fontColor=#ffffff;strokeColor=#001DBC;" vertex="1" parent="1">
          <mxGeometry x="697" y="200" width="70" height="20" as="geometry" />
        </mxCell>
        <mxCell id="sEfm3EKMrVG-fRiTKl60-71" value="" style="strokeWidth=1;fontStyle=0;html=1;fillColor=#0050ef;fontColor=#ffffff;strokeColor=#001DBC;" vertex="1" parent="1">
          <mxGeometry x="767" y="180" width="70" height="20" as="geometry" />
        </mxCell>
        <mxCell id="sEfm3EKMrVG-fRiTKl60-72" value="" style="strokeWidth=1;fontStyle=0;html=1;fillColor=#0050ef;fontColor=#ffffff;strokeColor=#001DBC;" vertex="1" parent="1">
          <mxGeometry x="837" y="180" width="70" height="20" as="geometry" />
        </mxCell>
        <mxCell id="sEfm3EKMrVG-fRiTKl60-73" value="" style="strokeWidth=1;fontStyle=0;html=1;fillColor=#0050ef;fontColor=#ffffff;strokeColor=#001DBC;" vertex="1" parent="1">
          <mxGeometry x="907" y="160" width="70" height="20" as="geometry" />
        </mxCell>
        <mxCell id="sEfm3EKMrVG-fRiTKl60-74" value="" style="strokeWidth=1;fontStyle=0;html=1;fillColor=#0050ef;fontColor=#ffffff;strokeColor=#001DBC;" vertex="1" parent="1">
          <mxGeometry x="977" y="160" width="70" height="20" as="geometry" />
        </mxCell>
        <mxCell id="sEfm3EKMrVG-fRiTKl60-75" value="" style="strokeWidth=1;fontStyle=0;html=1;fillColor=#0050ef;fontColor=#ffffff;strokeColor=#001DBC;" vertex="1" parent="1">
          <mxGeometry x="1047" y="160" width="70" height="20" as="geometry" />
        </mxCell>
        <mxCell id="sEfm3EKMrVG-fRiTKl60-77" value="" style="strokeWidth=1;fontStyle=0;html=1;fillColor=#0050ef;fontColor=#ffffff;strokeColor=#001DBC;" vertex="1" parent="1">
          <mxGeometry x="1187" y="160" width="70" height="20" as="geometry" />
        </mxCell>
        <mxCell id="sEfm3EKMrVG-fRiTKl60-78" value="" style="strokeWidth=1;fontStyle=0;html=1;fillColor=#0050ef;fontColor=#ffffff;strokeColor=#001DBC;" vertex="1" parent="1">
          <mxGeometry x="1117" y="160" width="70" height="20" as="geometry" />
        </mxCell>
        <mxCell id="sEfm3EKMrVG-fRiTKl60-79" value="" style="strokeWidth=1;fontStyle=0;html=1;fillColor=#e3c800;fontColor=#000000;strokeColor=#B09500;" vertex="1" parent="1">
          <mxGeometry x="1257" y="160" width="70" height="20" as="geometry" />
        </mxCell>
        <mxCell id="sEfm3EKMrVG-fRiTKl60-80" value="" style="strokeWidth=1;fontStyle=0;html=1;fillColor=#e3c800;fontColor=#000000;strokeColor=#B09500;" vertex="1" parent="1">
          <mxGeometry x="1327" y="160" width="70" height="20" as="geometry" />
        </mxCell>
        <mxCell id="sEfm3EKMrVG-fRiTKl60-86" value="" style="strokeWidth=1;fontStyle=0;html=1;fillColor=#0050ef;fontColor=#ffffff;strokeColor=#001DBC;" vertex="1" parent="1">
          <mxGeometry x="1257" y="180" width="70" height="20" as="geometry" />
        </mxCell>
        <mxCell id="sEfm3EKMrVG-fRiTKl60-87" value="" style="strokeWidth=1;fontStyle=0;html=1;fillColor=#0050ef;fontColor=#ffffff;strokeColor=#001DBC;" vertex="1" parent="1">
          <mxGeometry x="1327" y="180" width="70" height="20" as="geometry" />
        </mxCell>
        <mxCell id="sEfm3EKMrVG-fRiTKl60-88" value="" style="strokeWidth=1;fontStyle=0;html=1;fillColor=#0050ef;fontColor=#ffffff;strokeColor=#001DBC;" vertex="1" parent="1">
          <mxGeometry x="1397" y="160" width="63" height="20" as="geometry" />
        </mxCell>
        <mxCell id="sEfm3EKMrVG-fRiTKl60-89" value="" style="strokeWidth=1;fontStyle=0;html=1;fillColor=#0050ef;fontColor=#ffffff;strokeColor=#001DBC;" vertex="1" parent="1">
          <mxGeometry x="1460" y="160" width="70" height="20" as="geometry" />
        </mxCell>
        <mxCell id="sEfm3EKMrVG-fRiTKl60-90" value="" style="strokeWidth=1;fontStyle=0;html=1;fillColor=#0050ef;fontColor=#ffffff;strokeColor=#001DBC;" vertex="1" parent="1">
          <mxGeometry x="1530" y="180" width="70" height="20" as="geometry" />
        </mxCell>
        <mxCell id="sEfm3EKMrVG-fRiTKl60-91" value="" style="strokeWidth=1;fontStyle=0;html=1;fillColor=#e3c800;fontColor=#000000;strokeColor=#B09500;" vertex="1" parent="1">
          <mxGeometry x="1600" y="180" width="70" height="20" as="geometry" />
        </mxCell>
        <mxCell id="sEfm3EKMrVG-fRiTKl60-92" value="" style="strokeWidth=1;fontStyle=0;html=1;fillColor=#e3c800;fontColor=#000000;strokeColor=#B09500;" vertex="1" parent="1">
          <mxGeometry x="1670" y="180" width="70" height="20" as="geometry" />
        </mxCell>
        <mxCell id="sEfm3EKMrVG-fRiTKl60-93" value="" style="strokeWidth=1;fontStyle=0;html=1;fillColor=#e3c800;fontColor=#000000;strokeColor=#B09500;" vertex="1" parent="1">
          <mxGeometry x="1740" y="180" width="70" height="20" as="geometry" />
        </mxCell>
        <mxCell id="sEfm3EKMrVG-fRiTKl60-94" value="" style="strokeWidth=1;fontStyle=0;html=1;fillColor=#0050ef;fontColor=#ffffff;strokeColor=#001DBC;" vertex="1" parent="1">
          <mxGeometry x="1600" y="200" width="70" height="20" as="geometry" />
        </mxCell>
        <mxCell id="sEfm3EKMrVG-fRiTKl60-95" value="" style="strokeWidth=1;fontStyle=0;html=1;fillColor=#0050ef;fontColor=#ffffff;strokeColor=#001DBC;" vertex="1" parent="1">
          <mxGeometry x="1670" y="200" width="70" height="20" as="geometry" />
        </mxCell>
        <mxCell id="sEfm3EKMrVG-fRiTKl60-96" value="" style="strokeWidth=1;fontStyle=0;html=1;fillColor=#0050ef;fontColor=#ffffff;strokeColor=#001DBC;" vertex="1" parent="1">
          <mxGeometry x="1740" y="200" width="70" height="20" as="geometry" />
        </mxCell>
        <mxCell id="sEfm3EKMrVG-fRiTKl60-97" value="" style="strokeWidth=1;fontStyle=0;html=1;fillColor=#0050ef;fontColor=#ffffff;strokeColor=#001DBC;" vertex="1" parent="1">
          <mxGeometry x="1810" y="180" width="70" height="20" as="geometry" />
        </mxCell>
        <mxCell id="sEfm3EKMrVG-fRiTKl60-98" value="" style="strokeWidth=1;fontStyle=0;html=1;fillColor=#0050ef;fontColor=#ffffff;strokeColor=#001DBC;" vertex="1" parent="1">
          <mxGeometry x="1880" y="200" width="70" height="20" as="geometry" />
        </mxCell>
      </root>
    </mxGraphModel>
  </diagram>
  <diagram id="L8xgv5YTSAuEKf-WwFJm" name="SJF-SPreemp">
    <mxGraphModel dx="2333" dy="1258" grid="1" gridSize="10" guides="1" tooltips="1" connect="1" arrows="1" fold="1" page="1" pageScale="1" pageWidth="850" pageHeight="1100" math="0" shadow="0">
      <root>
        <mxCell id="0" />
        <mxCell id="1" parent="0" />
        <mxCell id="nDYFTuV9OAIvn6F5eil9-1" value="0" style="align=center;strokeColor=#000000;html=1;" vertex="1" parent="1">
          <mxGeometry x="547" y="160" width="80" height="20" as="geometry" />
        </mxCell>
        <mxCell id="nDYFTuV9OAIvn6F5eil9-2" value="0" style="align=center;strokeColor=#000000;html=1;" vertex="1" parent="1">
          <mxGeometry x="547" y="180" width="80" height="20" as="geometry" />
        </mxCell>
        <mxCell id="nDYFTuV9OAIvn6F5eil9-3" value="3" style="align=center;strokeColor=#000000;html=1;" vertex="1" parent="1">
          <mxGeometry x="547" y="200" width="80" height="20" as="geometry" />
        </mxCell>
        <mxCell id="nDYFTuV9OAIvn6F5eil9-4" value="6" style="align=center;strokeColor=#000000;html=1;" vertex="1" parent="1">
          <mxGeometry x="547" y="220" width="80" height="20" as="geometry" />
        </mxCell>
        <mxCell id="nDYFTuV9OAIvn6F5eil9-5" value="SubmissÃ£o" style="strokeWidth=1;fontStyle=0;html=1;" vertex="1" parent="1">
          <mxGeometry x="547" y="140" width="80" height="20" as="geometry" />
        </mxCell>
        <mxCell id="nDYFTuV9OAIvn6F5eil9-6" value="" style="align=left;strokeColor=#000000;html=1;" vertex="1" parent="1">
          <mxGeometry x="627" y="160" width="1813" height="20" as="geometry" />
        </mxCell>
        <mxCell id="nDYFTuV9OAIvn6F5eil9-7" value="T1" style="strokeWidth=1;fontStyle=0;html=1;" vertex="1" parent="1">
          <mxGeometry x="627" y="140" width="70" height="20" as="geometry" />
        </mxCell>
        <mxCell id="nDYFTuV9OAIvn6F5eil9-8" value="T2" style="strokeWidth=1;fontStyle=0;html=1;" vertex="1" parent="1">
          <mxGeometry x="697" y="140" width="70" height="20" as="geometry" />
        </mxCell>
        <mxCell id="nDYFTuV9OAIvn6F5eil9-9" value="T3" style="strokeWidth=1;fontStyle=0;html=1;" vertex="1" parent="1">
          <mxGeometry x="767" y="140" width="70" height="20" as="geometry" />
        </mxCell>
        <mxCell id="nDYFTuV9OAIvn6F5eil9-10" value="T4" style="strokeWidth=1;fontStyle=0;html=1;" vertex="1" parent="1">
          <mxGeometry x="837" y="140" width="70" height="20" as="geometry" />
        </mxCell>
        <mxCell id="nDYFTuV9OAIvn6F5eil9-11" value="T5" style="strokeWidth=1;fontStyle=0;html=1;" vertex="1" parent="1">
          <mxGeometry x="907" y="140" width="70" height="20" as="geometry" />
        </mxCell>
        <mxCell id="nDYFTuV9OAIvn6F5eil9-12" value="T6" style="strokeWidth=1;fontStyle=0;html=1;" vertex="1" parent="1">
          <mxGeometry x="977" y="140" width="70" height="20" as="geometry" />
        </mxCell>
        <mxCell id="nDYFTuV9OAIvn6F5eil9-13" value="T7" style="strokeWidth=1;fontStyle=0;html=1;" vertex="1" parent="1">
          <mxGeometry x="1047" y="140" width="70" height="20" as="geometry" />
        </mxCell>
        <mxCell id="nDYFTuV9OAIvn6F5eil9-14" value="T8" style="strokeWidth=1;fontStyle=0;html=1;" vertex="1" parent="1">
          <mxGeometry x="1117" y="140" width="70" height="20" as="geometry" />
        </mxCell>
        <mxCell id="nDYFTuV9OAIvn6F5eil9-15" value="T9" style="strokeWidth=1;fontStyle=0;html=1;" vertex="1" parent="1">
          <mxGeometry x="1187" y="140" width="70" height="20" as="geometry" />
        </mxCell>
        <mxCell id="nDYFTuV9OAIvn6F5eil9-16" value="T10" style="strokeWidth=1;fontStyle=0;html=1;" vertex="1" parent="1">
          <mxGeometry x="1257" y="140" width="70" height="20" as="geometry" />
        </mxCell>
        <mxCell id="nDYFTuV9OAIvn6F5eil9-17" value="T11" style="strokeWidth=1;fontStyle=0;html=1;" vertex="1" parent="1">
          <mxGeometry x="1327" y="140" width="70" height="20" as="geometry" />
        </mxCell>
        <mxCell id="nDYFTuV9OAIvn6F5eil9-18" value="T12" style="strokeWidth=1;fontStyle=0;html=1;" vertex="1" parent="1">
          <mxGeometry x="1397" y="140" width="63" height="20" as="geometry" />
        </mxCell>
        <mxCell id="nDYFTuV9OAIvn6F5eil9-19" value="" style="align=left;strokeColor=#000000;html=1;" vertex="1" parent="1">
          <mxGeometry x="627" y="180" width="1813" height="20" as="geometry" />
        </mxCell>
        <mxCell id="nDYFTuV9OAIvn6F5eil9-20" value="" style="align=left;strokeColor=#000000;html=1;" vertex="1" parent="1">
          <mxGeometry x="627" y="200" width="1813" height="20" as="geometry" />
        </mxCell>
        <mxCell id="nDYFTuV9OAIvn6F5eil9-21" value="" style="align=left;strokeColor=#000000;html=1;" vertex="1" parent="1">
          <mxGeometry x="627" y="220" width="1813" height="20" as="geometry" />
        </mxCell>
        <mxCell id="nDYFTuV9OAIvn6F5eil9-22" value="P1" style="align=center;strokeColor=#000000;html=1;" vertex="1" parent="1">
          <mxGeometry x="390" y="160" width="80" height="20" as="geometry" />
        </mxCell>
        <mxCell id="nDYFTuV9OAIvn6F5eil9-23" value="P2" style="align=center;strokeColor=#000000;html=1;" vertex="1" parent="1">
          <mxGeometry x="390" y="180" width="80" height="20" as="geometry" />
        </mxCell>
        <mxCell id="nDYFTuV9OAIvn6F5eil9-24" value="P3" style="align=center;strokeColor=#000000;html=1;" vertex="1" parent="1">
          <mxGeometry x="390" y="200" width="80" height="20" as="geometry" />
        </mxCell>
        <mxCell id="nDYFTuV9OAIvn6F5eil9-25" value="P4" style="align=center;strokeColor=#000000;html=1;" vertex="1" parent="1">
          <mxGeometry x="390" y="220" width="80" height="20" as="geometry" />
        </mxCell>
        <mxCell id="nDYFTuV9OAIvn6F5eil9-26" value="Processo" style="strokeWidth=1;fontStyle=0;html=1;" vertex="1" parent="1">
          <mxGeometry x="390" y="140" width="80" height="20" as="geometry" />
        </mxCell>
        <mxCell id="nDYFTuV9OAIvn6F5eil9-27" value="4" style="align=center;strokeColor=#000000;html=1;" vertex="1" parent="1">
          <mxGeometry x="470" y="160" width="77" height="20" as="geometry" />
        </mxCell>
        <mxCell id="nDYFTuV9OAIvn6F5eil9-28" value="2" style="align=center;strokeColor=#000000;html=1;" vertex="1" parent="1">
          <mxGeometry x="470" y="180" width="77" height="20" as="geometry" />
        </mxCell>
        <mxCell id="nDYFTuV9OAIvn6F5eil9-29" value="6" style="align=center;strokeColor=#000000;html=1;" vertex="1" parent="1">
          <mxGeometry x="470" y="200" width="77" height="20" as="geometry" />
        </mxCell>
        <mxCell id="nDYFTuV9OAIvn6F5eil9-30" value="3" style="align=center;strokeColor=#000000;html=1;" vertex="1" parent="1">
          <mxGeometry x="470" y="220" width="77" height="20" as="geometry" />
        </mxCell>
        <mxCell id="nDYFTuV9OAIvn6F5eil9-31" value="Prioridade" style="strokeWidth=1;fontStyle=0;html=1;" vertex="1" parent="1">
          <mxGeometry x="470" y="140" width="77" height="20" as="geometry" />
        </mxCell>
        <mxCell id="nDYFTuV9OAIvn6F5eil9-32" value="T13" style="strokeWidth=1;fontStyle=0;html=1;" vertex="1" parent="1">
          <mxGeometry x="1460" y="140" width="70" height="20" as="geometry" />
        </mxCell>
        <mxCell id="nDYFTuV9OAIvn6F5eil9-33" value="T14" style="strokeWidth=1;fontStyle=0;html=1;" vertex="1" parent="1">
          <mxGeometry x="1530" y="140" width="70" height="20" as="geometry" />
        </mxCell>
        <mxCell id="nDYFTuV9OAIvn6F5eil9-34" value="T15" style="strokeWidth=1;fontStyle=0;html=1;" vertex="1" parent="1">
          <mxGeometry x="1600" y="140" width="70" height="20" as="geometry" />
        </mxCell>
        <mxCell id="nDYFTuV9OAIvn6F5eil9-35" value="T16" style="strokeWidth=1;fontStyle=0;html=1;" vertex="1" parent="1">
          <mxGeometry x="1670" y="140" width="70" height="20" as="geometry" />
        </mxCell>
        <mxCell id="nDYFTuV9OAIvn6F5eil9-36" value="T17" style="strokeWidth=1;fontStyle=0;html=1;" vertex="1" parent="1">
          <mxGeometry x="1740" y="140" width="70" height="20" as="geometry" />
        </mxCell>
        <mxCell id="nDYFTuV9OAIvn6F5eil9-37" value="T18" style="strokeWidth=1;fontStyle=0;html=1;" vertex="1" parent="1">
          <mxGeometry x="1810" y="140" width="70" height="20" as="geometry" />
        </mxCell>
        <mxCell id="nDYFTuV9OAIvn6F5eil9-38" value="T19" style="strokeWidth=1;fontStyle=0;html=1;" vertex="1" parent="1">
          <mxGeometry x="1880" y="140" width="70" height="20" as="geometry" />
        </mxCell>
        <mxCell id="nDYFTuV9OAIvn6F5eil9-39" value="T20" style="strokeWidth=1;fontStyle=0;html=1;" vertex="1" parent="1">
          <mxGeometry x="1950" y="140" width="70" height="20" as="geometry" />
        </mxCell>
        <mxCell id="nDYFTuV9OAIvn6F5eil9-47" value="CPU" style="strokeWidth=1;fontStyle=0;html=1;fillColor=#0050ef;fontColor=#ffffff;strokeColor=#000000;" vertex="1" parent="1">
          <mxGeometry x="390" y="270" width="70" height="20" as="geometry" />
        </mxCell>
        <mxCell id="nDYFTuV9OAIvn6F5eil9-48" value="IO" style="strokeWidth=1;fontStyle=0;html=1;fillColor=#e3c800;fontColor=#000000;strokeColor=#000000;" vertex="1" parent="1">
          <mxGeometry x="390" y="290" width="70" height="20" as="geometry" />
        </mxCell>
        <mxCell id="nDYFTuV9OAIvn6F5eil9-62" value="T21" style="strokeWidth=1;fontStyle=0;html=1;" vertex="1" parent="1">
          <mxGeometry x="2020" y="140" width="70" height="20" as="geometry" />
        </mxCell>
        <mxCell id="nDYFTuV9OAIvn6F5eil9-63" value="T22" style="strokeWidth=1;fontStyle=0;html=1;" vertex="1" parent="1">
          <mxGeometry x="2090" y="140" width="70" height="20" as="geometry" />
        </mxCell>
        <mxCell id="nDYFTuV9OAIvn6F5eil9-64" value="T23" style="strokeWidth=1;fontStyle=0;html=1;" vertex="1" parent="1">
          <mxGeometry x="2160" y="140" width="70" height="20" as="geometry" />
        </mxCell>
        <mxCell id="nDYFTuV9OAIvn6F5eil9-65" value="T24" style="strokeWidth=1;fontStyle=0;html=1;" vertex="1" parent="1">
          <mxGeometry x="2230" y="140" width="70" height="20" as="geometry" />
        </mxCell>
        <mxCell id="nDYFTuV9OAIvn6F5eil9-66" value="T25" style="strokeWidth=1;fontStyle=0;html=1;" vertex="1" parent="1">
          <mxGeometry x="2300" y="140" width="70" height="20" as="geometry" />
        </mxCell>
        <mxCell id="nDYFTuV9OAIvn6F5eil9-67" value="T26" style="strokeWidth=1;fontStyle=0;html=1;" vertex="1" parent="1">
          <mxGeometry x="2370" y="140" width="70" height="20" as="geometry" />
        </mxCell>
        <mxCell id="nDYFTuV9OAIvn6F5eil9-75" value="" style="strokeWidth=1;fontStyle=0;html=1;fillColor=#0050ef;fontColor=#ffffff;strokeColor=#001DBC;" vertex="1" parent="1">
          <mxGeometry x="627" y="160" width="70" height="20" as="geometry" />
        </mxCell>
        <mxCell id="nDYFTuV9OAIvn6F5eil9-76" value="" style="strokeWidth=1;fontStyle=0;html=1;fillColor=#e3c800;fontColor=#000000;strokeColor=#B09500;" vertex="1" parent="1">
          <mxGeometry x="697" y="160" width="70" height="20" as="geometry" />
        </mxCell>
        <mxCell id="nDYFTuV9OAIvn6F5eil9-77" value="" style="strokeWidth=1;fontStyle=0;html=1;fillColor=#0050ef;fontColor=#ffffff;strokeColor=#001DBC;" vertex="1" parent="1">
          <mxGeometry x="767" y="160" width="70" height="20" as="geometry" />
        </mxCell>
        <mxCell id="nDYFTuV9OAIvn6F5eil9-78" value="" style="strokeWidth=1;fontStyle=0;html=1;fillColor=#e3c800;fontColor=#000000;strokeColor=#B09500;" vertex="1" parent="1">
          <mxGeometry x="837" y="160" width="70" height="20" as="geometry" />
        </mxCell>
        <mxCell id="nDYFTuV9OAIvn6F5eil9-79" value="" style="strokeWidth=1;fontStyle=0;html=1;fillColor=#0050ef;fontColor=#ffffff;strokeColor=#001DBC;" vertex="1" parent="1">
          <mxGeometry x="907" y="160" width="70" height="20" as="geometry" />
        </mxCell>
        <mxCell id="nDYFTuV9OAIvn6F5eil9-80" value="" style="strokeWidth=1;fontStyle=0;html=1;fillColor=#0050ef;fontColor=#ffffff;strokeColor=#001DBC;" vertex="1" parent="1">
          <mxGeometry x="977" y="220" width="70" height="20" as="geometry" />
        </mxCell>
        <mxCell id="nDYFTuV9OAIvn6F5eil9-82" value="" style="strokeWidth=1;fontStyle=0;html=1;fillColor=#0050ef;fontColor=#ffffff;strokeColor=#001DBC;" vertex="1" parent="1">
          <mxGeometry x="1047" y="220" width="70" height="20" as="geometry" />
        </mxCell>
        <mxCell id="nDYFTuV9OAIvn6F5eil9-83" value="" style="strokeWidth=1;fontStyle=0;html=1;fillColor=#0050ef;fontColor=#ffffff;strokeColor=#001DBC;" vertex="1" parent="1">
          <mxGeometry x="1117" y="220" width="70" height="20" as="geometry" />
        </mxCell>
        <mxCell id="nDYFTuV9OAIvn6F5eil9-84" value="" style="strokeWidth=1;fontStyle=0;html=1;fillColor=#0050ef;fontColor=#ffffff;strokeColor=#001DBC;" vertex="1" parent="1">
          <mxGeometry x="1187" y="220" width="70" height="20" as="geometry" />
        </mxCell>
        <mxCell id="nDYFTuV9OAIvn6F5eil9-85" value="" style="strokeWidth=1;fontStyle=0;html=1;fillColor=#0050ef;fontColor=#ffffff;strokeColor=#001DBC;" vertex="1" parent="1">
          <mxGeometry x="1257" y="180" width="70" height="20" as="geometry" />
        </mxCell>
        <mxCell id="nDYFTuV9OAIvn6F5eil9-86" value="" style="strokeWidth=1;fontStyle=0;html=1;fillColor=#0050ef;fontColor=#ffffff;strokeColor=#001DBC;" vertex="1" parent="1">
          <mxGeometry x="1327" y="180" width="70" height="20" as="geometry" />
        </mxCell>
        <mxCell id="nDYFTuV9OAIvn6F5eil9-89" value="" style="strokeWidth=1;fontStyle=0;html=1;fillColor=#0050ef;fontColor=#ffffff;strokeColor=#001DBC;" vertex="1" parent="1">
          <mxGeometry x="1397" y="180" width="63" height="20" as="geometry" />
        </mxCell>
        <mxCell id="nDYFTuV9OAIvn6F5eil9-90" value="" style="strokeWidth=1;fontStyle=0;html=1;fillColor=#e3c800;fontColor=#000000;strokeColor=#B09500;" vertex="1" parent="1">
          <mxGeometry x="1460" y="180" width="70" height="20" as="geometry" />
        </mxCell>
        <mxCell id="nDYFTuV9OAIvn6F5eil9-91" value="" style="strokeWidth=1;fontStyle=0;html=1;fillColor=#0050ef;fontColor=#ffffff;strokeColor=#001DBC;" vertex="1" parent="1">
          <mxGeometry x="1530" y="180" width="70" height="20" as="geometry" />
        </mxCell>
        <mxCell id="nDYFTuV9OAIvn6F5eil9-92" value="" style="strokeWidth=1;fontStyle=0;html=1;fillColor=#0050ef;fontColor=#ffffff;strokeColor=#001DBC;" vertex="1" parent="1">
          <mxGeometry x="1600" y="180" width="70" height="20" as="geometry" />
        </mxCell>
        <mxCell id="nDYFTuV9OAIvn6F5eil9-93" value="" style="strokeWidth=1;fontStyle=0;html=1;fillColor=#0050ef;fontColor=#ffffff;strokeColor=#001DBC;" vertex="1" parent="1">
          <mxGeometry x="1670" y="180" width="70" height="20" as="geometry" />
        </mxCell>
        <mxCell id="nDYFTuV9OAIvn6F5eil9-102" value="" style="strokeWidth=1;fontStyle=0;html=1;fillColor=#0050ef;fontColor=#ffffff;strokeColor=#001DBC;" vertex="1" parent="1">
          <mxGeometry x="1740" y="200" width="70" height="20" as="geometry" />
        </mxCell>
        <mxCell id="nDYFTuV9OAIvn6F5eil9-103" value="" style="strokeWidth=1;fontStyle=0;html=1;fillColor=#0050ef;fontColor=#ffffff;strokeColor=#001DBC;" vertex="1" parent="1">
          <mxGeometry x="1810" y="200" width="70" height="20" as="geometry" />
        </mxCell>
        <mxCell id="nDYFTuV9OAIvn6F5eil9-104" value="" style="strokeWidth=1;fontStyle=0;html=1;fillColor=#0050ef;fontColor=#ffffff;strokeColor=#001DBC;" vertex="1" parent="1">
          <mxGeometry x="1880" y="200" width="70" height="20" as="geometry" />
        </mxCell>
        <mxCell id="nDYFTuV9OAIvn6F5eil9-105" value="" style="strokeWidth=1;fontStyle=0;html=1;fillColor=#0050ef;fontColor=#ffffff;strokeColor=#001DBC;" vertex="1" parent="1">
          <mxGeometry x="1950" y="200" width="70" height="20" as="geometry" />
        </mxCell>
        <mxCell id="nDYFTuV9OAIvn6F5eil9-106" value="" style="strokeWidth=1;fontStyle=0;html=1;fillColor=#e3c800;fontColor=#000000;strokeColor=#B09500;" vertex="1" parent="1">
          <mxGeometry x="2020" y="200" width="70" height="20" as="geometry" />
        </mxCell>
        <mxCell id="nDYFTuV9OAIvn6F5eil9-107" value="" style="strokeWidth=1;fontStyle=0;html=1;fillColor=#e3c800;fontColor=#000000;strokeColor=#B09500;" vertex="1" parent="1">
          <mxGeometry x="2090" y="200" width="70" height="20" as="geometry" />
        </mxCell>
        <mxCell id="nDYFTuV9OAIvn6F5eil9-108" value="" style="strokeWidth=1;fontStyle=0;html=1;fillColor=#e3c800;fontColor=#000000;strokeColor=#B09500;" vertex="1" parent="1">
          <mxGeometry x="2160" y="200" width="70" height="20" as="geometry" />
        </mxCell>
        <mxCell id="nDYFTuV9OAIvn6F5eil9-109" value="" style="strokeWidth=1;fontStyle=0;html=1;fillColor=#e3c800;fontColor=#000000;strokeColor=#B09500;" vertex="1" parent="1">
          <mxGeometry x="2230" y="200" width="70" height="20" as="geometry" />
        </mxCell>
        <mxCell id="nDYFTuV9OAIvn6F5eil9-110" value="" style="strokeWidth=1;fontStyle=0;html=1;fillColor=#0050ef;fontColor=#ffffff;strokeColor=#001DBC;" vertex="1" parent="1">
          <mxGeometry x="2300" y="200" width="70" height="20" as="geometry" />
        </mxCell>
        <mxCell id="nDYFTuV9OAIvn6F5eil9-111" value="" style="strokeWidth=1;fontStyle=0;html=1;fillColor=#0050ef;fontColor=#ffffff;strokeColor=#001DBC;" vertex="1" parent="1">
          <mxGeometry x="2370" y="200" width="70" height="20" as="geometry" />
        </mxCell>
      </root>
    </mxGraphModel>
  </diagram>
  <diagram id="6qA1MLdb3_1iwqIfo_uz" name="SJF-Preemp">
    <mxGraphModel dx="1909" dy="1029" grid="1" gridSize="10" guides="1" tooltips="1" connect="1" arrows="1" fold="1" page="1" pageScale="1" pageWidth="850" pageHeight="1100" math="0" shadow="0">
      <root>
        <mxCell id="0" />
        <mxCell id="1" parent="0" />
        <mxCell id="mF549bmzPZC8LmnAnkzi-1" value="0" style="align=center;strokeColor=#000000;html=1;" vertex="1" parent="1">
          <mxGeometry x="547" y="160" width="80" height="20" as="geometry" />
        </mxCell>
        <mxCell id="mF549bmzPZC8LmnAnkzi-2" value="0" style="align=center;strokeColor=#000000;html=1;" vertex="1" parent="1">
          <mxGeometry x="547" y="180" width="80" height="20" as="geometry" />
        </mxCell>
        <mxCell id="mF549bmzPZC8LmnAnkzi-3" value="3" style="align=center;strokeColor=#000000;html=1;" vertex="1" parent="1">
          <mxGeometry x="547" y="200" width="80" height="20" as="geometry" />
        </mxCell>
        <mxCell id="mF549bmzPZC8LmnAnkzi-4" value="6" style="align=center;strokeColor=#000000;html=1;" vertex="1" parent="1">
          <mxGeometry x="547" y="220" width="80" height="20" as="geometry" />
        </mxCell>
        <mxCell id="mF549bmzPZC8LmnAnkzi-5" value="SubmissÃ£o" style="strokeWidth=1;fontStyle=0;html=1;" vertex="1" parent="1">
          <mxGeometry x="547" y="140" width="80" height="20" as="geometry" />
        </mxCell>
        <mxCell id="mF549bmzPZC8LmnAnkzi-6" value="" style="align=left;strokeColor=#000000;html=1;" vertex="1" parent="1">
          <mxGeometry x="627" y="160" width="1813" height="20" as="geometry" />
        </mxCell>
        <mxCell id="mF549bmzPZC8LmnAnkzi-7" value="T1" style="strokeWidth=1;fontStyle=0;html=1;" vertex="1" parent="1">
          <mxGeometry x="627" y="140" width="70" height="20" as="geometry" />
        </mxCell>
        <mxCell id="mF549bmzPZC8LmnAnkzi-8" value="T2" style="strokeWidth=1;fontStyle=0;html=1;" vertex="1" parent="1">
          <mxGeometry x="697" y="140" width="70" height="20" as="geometry" />
        </mxCell>
        <mxCell id="mF549bmzPZC8LmnAnkzi-9" value="T3" style="strokeWidth=1;fontStyle=0;html=1;" vertex="1" parent="1">
          <mxGeometry x="767" y="140" width="70" height="20" as="geometry" />
        </mxCell>
        <mxCell id="mF549bmzPZC8LmnAnkzi-10" value="T4" style="strokeWidth=1;fontStyle=0;html=1;" vertex="1" parent="1">
          <mxGeometry x="837" y="140" width="70" height="20" as="geometry" />
        </mxCell>
        <mxCell id="mF549bmzPZC8LmnAnkzi-11" value="T5" style="strokeWidth=1;fontStyle=0;html=1;" vertex="1" parent="1">
          <mxGeometry x="907" y="140" width="70" height="20" as="geometry" />
        </mxCell>
        <mxCell id="mF549bmzPZC8LmnAnkzi-12" value="T6" style="strokeWidth=1;fontStyle=0;html=1;" vertex="1" parent="1">
          <mxGeometry x="977" y="140" width="70" height="20" as="geometry" />
        </mxCell>
        <mxCell id="mF549bmzPZC8LmnAnkzi-13" value="T7" style="strokeWidth=1;fontStyle=0;html=1;" vertex="1" parent="1">
          <mxGeometry x="1047" y="140" width="70" height="20" as="geometry" />
        </mxCell>
        <mxCell id="mF549bmzPZC8LmnAnkzi-14" value="T8" style="strokeWidth=1;fontStyle=0;html=1;" vertex="1" parent="1">
          <mxGeometry x="1117" y="140" width="70" height="20" as="geometry" />
        </mxCell>
        <mxCell id="mF549bmzPZC8LmnAnkzi-15" value="T9" style="strokeWidth=1;fontStyle=0;html=1;" vertex="1" parent="1">
          <mxGeometry x="1187" y="140" width="70" height="20" as="geometry" />
        </mxCell>
        <mxCell id="mF549bmzPZC8LmnAnkzi-16" value="T10" style="strokeWidth=1;fontStyle=0;html=1;" vertex="1" parent="1">
          <mxGeometry x="1257" y="140" width="70" height="20" as="geometry" />
        </mxCell>
        <mxCell id="mF549bmzPZC8LmnAnkzi-17" value="T11" style="strokeWidth=1;fontStyle=0;html=1;" vertex="1" parent="1">
          <mxGeometry x="1327" y="140" width="70" height="20" as="geometry" />
        </mxCell>
        <mxCell id="mF549bmzPZC8LmnAnkzi-18" value="T12" style="strokeWidth=1;fontStyle=0;html=1;" vertex="1" parent="1">
          <mxGeometry x="1397" y="140" width="63" height="20" as="geometry" />
        </mxCell>
        <mxCell id="mF549bmzPZC8LmnAnkzi-19" value="" style="align=left;strokeColor=#000000;html=1;" vertex="1" parent="1">
          <mxGeometry x="627" y="180" width="1813" height="20" as="geometry" />
        </mxCell>
        <mxCell id="mF549bmzPZC8LmnAnkzi-20" value="" style="align=left;strokeColor=#000000;html=1;" vertex="1" parent="1">
          <mxGeometry x="627" y="200" width="1813" height="20" as="geometry" />
        </mxCell>
        <mxCell id="mF549bmzPZC8LmnAnkzi-21" value="" style="align=left;strokeColor=#000000;html=1;" vertex="1" parent="1">
          <mxGeometry x="627" y="220" width="1813" height="20" as="geometry" />
        </mxCell>
        <mxCell id="mF549bmzPZC8LmnAnkzi-22" value="P1" style="align=center;strokeColor=#000000;html=1;" vertex="1" parent="1">
          <mxGeometry x="390" y="160" width="80" height="20" as="geometry" />
        </mxCell>
        <mxCell id="mF549bmzPZC8LmnAnkzi-23" value="P2" style="align=center;strokeColor=#000000;html=1;" vertex="1" parent="1">
          <mxGeometry x="390" y="180" width="80" height="20" as="geometry" />
        </mxCell>
        <mxCell id="mF549bmzPZC8LmnAnkzi-24" value="P3" style="align=center;strokeColor=#000000;html=1;" vertex="1" parent="1">
          <mxGeometry x="390" y="200" width="80" height="20" as="geometry" />
        </mxCell>
        <mxCell id="mF549bmzPZC8LmnAnkzi-25" value="P4" style="align=center;strokeColor=#000000;html=1;" vertex="1" parent="1">
          <mxGeometry x="390" y="220" width="80" height="20" as="geometry" />
        </mxCell>
        <mxCell id="mF549bmzPZC8LmnAnkzi-26" value="Processo" style="strokeWidth=1;fontStyle=0;html=1;" vertex="1" parent="1">
          <mxGeometry x="390" y="140" width="80" height="20" as="geometry" />
        </mxCell>
        <mxCell id="mF549bmzPZC8LmnAnkzi-27" value="4" style="align=center;strokeColor=#000000;html=1;" vertex="1" parent="1">
          <mxGeometry x="470" y="160" width="77" height="20" as="geometry" />
        </mxCell>
        <mxCell id="mF549bmzPZC8LmnAnkzi-28" value="2" style="align=center;strokeColor=#000000;html=1;" vertex="1" parent="1">
          <mxGeometry x="470" y="180" width="77" height="20" as="geometry" />
        </mxCell>
        <mxCell id="mF549bmzPZC8LmnAnkzi-29" value="6" style="align=center;strokeColor=#000000;html=1;" vertex="1" parent="1">
          <mxGeometry x="470" y="200" width="77" height="20" as="geometry" />
        </mxCell>
        <mxCell id="mF549bmzPZC8LmnAnkzi-30" value="3" style="align=center;strokeColor=#000000;html=1;" vertex="1" parent="1">
          <mxGeometry x="470" y="220" width="77" height="20" as="geometry" />
        </mxCell>
        <mxCell id="mF549bmzPZC8LmnAnkzi-31" value="Prioridade" style="strokeWidth=1;fontStyle=0;html=1;" vertex="1" parent="1">
          <mxGeometry x="470" y="140" width="77" height="20" as="geometry" />
        </mxCell>
        <mxCell id="mF549bmzPZC8LmnAnkzi-32" value="T13" style="strokeWidth=1;fontStyle=0;html=1;" vertex="1" parent="1">
          <mxGeometry x="1460" y="140" width="70" height="20" as="geometry" />
        </mxCell>
        <mxCell id="mF549bmzPZC8LmnAnkzi-33" value="T14" style="strokeWidth=1;fontStyle=0;html=1;" vertex="1" parent="1">
          <mxGeometry x="1530" y="140" width="70" height="20" as="geometry" />
        </mxCell>
        <mxCell id="mF549bmzPZC8LmnAnkzi-34" value="T15" style="strokeWidth=1;fontStyle=0;html=1;" vertex="1" parent="1">
          <mxGeometry x="1600" y="140" width="70" height="20" as="geometry" />
        </mxCell>
        <mxCell id="mF549bmzPZC8LmnAnkzi-35" value="T16" style="strokeWidth=1;fontStyle=0;html=1;" vertex="1" parent="1">
          <mxGeometry x="1670" y="140" width="70" height="20" as="geometry" />
        </mxCell>
        <mxCell id="mF549bmzPZC8LmnAnkzi-36" value="T17" style="strokeWidth=1;fontStyle=0;html=1;" vertex="1" parent="1">
          <mxGeometry x="1740" y="140" width="70" height="20" as="geometry" />
        </mxCell>
        <mxCell id="mF549bmzPZC8LmnAnkzi-37" value="T18" style="strokeWidth=1;fontStyle=0;html=1;" vertex="1" parent="1">
          <mxGeometry x="1810" y="140" width="70" height="20" as="geometry" />
        </mxCell>
        <mxCell id="mF549bmzPZC8LmnAnkzi-38" value="T19" style="strokeWidth=1;fontStyle=0;html=1;" vertex="1" parent="1">
          <mxGeometry x="1880" y="140" width="70" height="20" as="geometry" />
        </mxCell>
        <mxCell id="mF549bmzPZC8LmnAnkzi-39" value="T20" style="strokeWidth=1;fontStyle=0;html=1;" vertex="1" parent="1">
          <mxGeometry x="1950" y="140" width="70" height="20" as="geometry" />
        </mxCell>
        <mxCell id="mF549bmzPZC8LmnAnkzi-40" value="CPU" style="strokeWidth=1;fontStyle=0;html=1;fillColor=#0050ef;fontColor=#ffffff;strokeColor=#000000;" vertex="1" parent="1">
          <mxGeometry x="390" y="270" width="70" height="20" as="geometry" />
        </mxCell>
        <mxCell id="mF549bmzPZC8LmnAnkzi-41" value="IO" style="strokeWidth=1;fontStyle=0;html=1;fillColor=#e3c800;fontColor=#000000;strokeColor=#000000;" vertex="1" parent="1">
          <mxGeometry x="390" y="290" width="70" height="20" as="geometry" />
        </mxCell>
        <mxCell id="mF549bmzPZC8LmnAnkzi-42" value="T21" style="strokeWidth=1;fontStyle=0;html=1;" vertex="1" parent="1">
          <mxGeometry x="2020" y="140" width="70" height="20" as="geometry" />
        </mxCell>
        <mxCell id="mF549bmzPZC8LmnAnkzi-43" value="T22" style="strokeWidth=1;fontStyle=0;html=1;" vertex="1" parent="1">
          <mxGeometry x="2090" y="140" width="70" height="20" as="geometry" />
        </mxCell>
        <mxCell id="mF549bmzPZC8LmnAnkzi-44" value="T23" style="strokeWidth=1;fontStyle=0;html=1;" vertex="1" parent="1">
          <mxGeometry x="2160" y="140" width="70" height="20" as="geometry" />
        </mxCell>
        <mxCell id="mF549bmzPZC8LmnAnkzi-45" value="T24" style="strokeWidth=1;fontStyle=0;html=1;" vertex="1" parent="1">
          <mxGeometry x="2230" y="140" width="70" height="20" as="geometry" />
        </mxCell>
        <mxCell id="mF549bmzPZC8LmnAnkzi-46" value="T25" style="strokeWidth=1;fontStyle=0;html=1;" vertex="1" parent="1">
          <mxGeometry x="2300" y="140" width="70" height="20" as="geometry" />
        </mxCell>
        <mxCell id="mF549bmzPZC8LmnAnkzi-47" value="T26" style="strokeWidth=1;fontStyle=0;html=1;" vertex="1" parent="1">
          <mxGeometry x="2370" y="140" width="70" height="20" as="geometry" />
        </mxCell>
        <mxCell id="mF549bmzPZC8LmnAnkzi-48" value="" style="strokeWidth=1;fontStyle=0;html=1;fillColor=#0050ef;fontColor=#ffffff;strokeColor=#001DBC;" vertex="1" parent="1">
          <mxGeometry x="627" y="160" width="70" height="20" as="geometry" />
        </mxCell>
        <mxCell id="mF549bmzPZC8LmnAnkzi-49" value="" style="strokeWidth=1;fontStyle=0;html=1;fillColor=#e3c800;fontColor=#000000;strokeColor=#B09500;" vertex="1" parent="1">
          <mxGeometry x="697" y="160" width="70" height="20" as="geometry" />
        </mxCell>
        <mxCell id="mF549bmzPZC8LmnAnkzi-50" value="" style="strokeWidth=1;fontStyle=0;html=1;fillColor=#0050ef;fontColor=#ffffff;strokeColor=#001DBC;" vertex="1" parent="1">
          <mxGeometry x="767" y="160" width="70" height="20" as="geometry" />
        </mxCell>
        <mxCell id="mF549bmzPZC8LmnAnkzi-51" value="" style="strokeWidth=1;fontStyle=0;html=1;fillColor=#e3c800;fontColor=#000000;strokeColor=#B09500;" vertex="1" parent="1">
          <mxGeometry x="837" y="160" width="70" height="20" as="geometry" />
        </mxCell>
        <mxCell id="mF549bmzPZC8LmnAnkzi-52" value="" style="strokeWidth=1;fontStyle=0;html=1;fillColor=#0050ef;fontColor=#ffffff;strokeColor=#001DBC;" vertex="1" parent="1">
          <mxGeometry x="907" y="160" width="70" height="20" as="geometry" />
        </mxCell>
        <mxCell id="mF549bmzPZC8LmnAnkzi-53" value="" style="strokeWidth=1;fontStyle=0;html=1;fillColor=#0050ef;fontColor=#ffffff;strokeColor=#001DBC;" vertex="1" parent="1">
          <mxGeometry x="977" y="220" width="70" height="20" as="geometry" />
        </mxCell>
        <mxCell id="mF549bmzPZC8LmnAnkzi-54" value="" style="strokeWidth=1;fontStyle=0;html=1;fillColor=#0050ef;fontColor=#ffffff;strokeColor=#001DBC;" vertex="1" parent="1">
          <mxGeometry x="1047" y="220" width="70" height="20" as="geometry" />
        </mxCell>
        <mxCell id="mF549bmzPZC8LmnAnkzi-55" value="" style="strokeWidth=1;fontStyle=0;html=1;fillColor=#0050ef;fontColor=#ffffff;strokeColor=#001DBC;" vertex="1" parent="1">
          <mxGeometry x="1117" y="220" width="70" height="20" as="geometry" />
        </mxCell>
        <mxCell id="mF549bmzPZC8LmnAnkzi-56" value="" style="strokeWidth=1;fontStyle=0;html=1;fillColor=#0050ef;fontColor=#ffffff;strokeColor=#001DBC;" vertex="1" parent="1">
          <mxGeometry x="1187" y="220" width="70" height="20" as="geometry" />
        </mxCell>
        <mxCell id="mF549bmzPZC8LmnAnkzi-57" value="" style="strokeWidth=1;fontStyle=0;html=1;fillColor=#0050ef;fontColor=#ffffff;strokeColor=#001DBC;" vertex="1" parent="1">
          <mxGeometry x="1257" y="180" width="70" height="20" as="geometry" />
        </mxCell>
        <mxCell id="mF549bmzPZC8LmnAnkzi-58" value="" style="strokeWidth=1;fontStyle=0;html=1;fillColor=#0050ef;fontColor=#ffffff;strokeColor=#001DBC;" vertex="1" parent="1">
          <mxGeometry x="1327" y="180" width="70" height="20" as="geometry" />
        </mxCell>
        <mxCell id="mF549bmzPZC8LmnAnkzi-59" value="" style="strokeWidth=1;fontStyle=0;html=1;fillColor=#0050ef;fontColor=#ffffff;strokeColor=#001DBC;" vertex="1" parent="1">
          <mxGeometry x="1397" y="180" width="63" height="20" as="geometry" />
        </mxCell>
        <mxCell id="mF549bmzPZC8LmnAnkzi-60" value="" style="strokeWidth=1;fontStyle=0;html=1;fillColor=#e3c800;fontColor=#000000;strokeColor=#B09500;" vertex="1" parent="1">
          <mxGeometry x="1460" y="180" width="70" height="20" as="geometry" />
        </mxCell>
        <mxCell id="mF549bmzPZC8LmnAnkzi-61" value="" style="strokeWidth=1;fontStyle=0;html=1;fillColor=#0050ef;fontColor=#ffffff;strokeColor=#001DBC;" vertex="1" parent="1">
          <mxGeometry x="1530" y="180" width="70" height="20" as="geometry" />
        </mxCell>
        <mxCell id="mF549bmzPZC8LmnAnkzi-62" value="" style="strokeWidth=1;fontStyle=0;html=1;fillColor=#0050ef;fontColor=#ffffff;strokeColor=#001DBC;" vertex="1" parent="1">
          <mxGeometry x="1600" y="180" width="70" height="20" as="geometry" />
        </mxCell>
        <mxCell id="mF549bmzPZC8LmnAnkzi-63" value="" style="strokeWidth=1;fontStyle=0;html=1;fillColor=#0050ef;fontColor=#ffffff;strokeColor=#001DBC;" vertex="1" parent="1">
          <mxGeometry x="1670" y="180" width="70" height="20" as="geometry" />
        </mxCell>
        <mxCell id="mF549bmzPZC8LmnAnkzi-64" value="" style="strokeWidth=1;fontStyle=0;html=1;fillColor=#0050ef;fontColor=#ffffff;strokeColor=#001DBC;" vertex="1" parent="1">
          <mxGeometry x="1740" y="200" width="70" height="20" as="geometry" />
        </mxCell>
        <mxCell id="mF549bmzPZC8LmnAnkzi-65" value="" style="strokeWidth=1;fontStyle=0;html=1;fillColor=#0050ef;fontColor=#ffffff;strokeColor=#001DBC;" vertex="1" parent="1">
          <mxGeometry x="1810" y="200" width="70" height="20" as="geometry" />
        </mxCell>
        <mxCell id="mF549bmzPZC8LmnAnkzi-66" value="" style="strokeWidth=1;fontStyle=0;html=1;fillColor=#0050ef;fontColor=#ffffff;strokeColor=#001DBC;" vertex="1" parent="1">
          <mxGeometry x="1880" y="200" width="70" height="20" as="geometry" />
        </mxCell>
        <mxCell id="mF549bmzPZC8LmnAnkzi-67" value="" style="strokeWidth=1;fontStyle=0;html=1;fillColor=#0050ef;fontColor=#ffffff;strokeColor=#001DBC;" vertex="1" parent="1">
          <mxGeometry x="1950" y="200" width="70" height="20" as="geometry" />
        </mxCell>
        <mxCell id="mF549bmzPZC8LmnAnkzi-68" value="" style="strokeWidth=1;fontStyle=0;html=1;fillColor=#e3c800;fontColor=#000000;strokeColor=#B09500;" vertex="1" parent="1">
          <mxGeometry x="2020" y="200" width="70" height="20" as="geometry" />
        </mxCell>
        <mxCell id="mF549bmzPZC8LmnAnkzi-69" value="" style="strokeWidth=1;fontStyle=0;html=1;fillColor=#e3c800;fontColor=#000000;strokeColor=#B09500;" vertex="1" parent="1">
          <mxGeometry x="2090" y="200" width="70" height="20" as="geometry" />
        </mxCell>
        <mxCell id="mF549bmzPZC8LmnAnkzi-70" value="" style="strokeWidth=1;fontStyle=0;html=1;fillColor=#e3c800;fontColor=#000000;strokeColor=#B09500;" vertex="1" parent="1">
          <mxGeometry x="2160" y="200" width="70" height="20" as="geometry" />
        </mxCell>
        <mxCell id="mF549bmzPZC8LmnAnkzi-71" value="" style="strokeWidth=1;fontStyle=0;html=1;fillColor=#e3c800;fontColor=#000000;strokeColor=#B09500;" vertex="1" parent="1">
          <mxGeometry x="2230" y="200" width="70" height="20" as="geometry" />
        </mxCell>
        <mxCell id="mF549bmzPZC8LmnAnkzi-72" value="" style="strokeWidth=1;fontStyle=0;html=1;fillColor=#0050ef;fontColor=#ffffff;strokeColor=#001DBC;" vertex="1" parent="1">
          <mxGeometry x="2300" y="200" width="70" height="20" as="geometry" />
        </mxCell>
        <mxCell id="mF549bmzPZC8LmnAnkzi-73" value="" style="strokeWidth=1;fontStyle=0;html=1;fillColor=#0050ef;fontColor=#ffffff;strokeColor=#001DBC;" vertex="1" parent="1">
          <mxGeometry x="2370" y="200" width="70" height="20" as="geometry" />
        </mxCell>
      </root>
    </mxGraphModel>
  </diagram>
  <diagram id="ZwgIM-sOr564mZQWDzpC" name="Prio-SPreemp">
    <mxGraphModel dx="1909" dy="1029" grid="1" gridSize="10" guides="1" tooltips="1" connect="1" arrows="1" fold="1" page="1" pageScale="1" pageWidth="850" pageHeight="1100" math="0" shadow="0">
      <root>
        <mxCell id="0" />
        <mxCell id="1" parent="0" />
        <mxCell id="wO4F3rLJqFVepw0rZsP_-1" value="0" style="align=center;strokeColor=#000000;html=1;" vertex="1" parent="1">
          <mxGeometry x="547" y="160" width="80" height="20" as="geometry" />
        </mxCell>
        <mxCell id="wO4F3rLJqFVepw0rZsP_-2" value="0" style="align=center;strokeColor=#000000;html=1;" vertex="1" parent="1">
          <mxGeometry x="547" y="180" width="80" height="20" as="geometry" />
        </mxCell>
        <mxCell id="wO4F3rLJqFVepw0rZsP_-3" value="3" style="align=center;strokeColor=#000000;html=1;" vertex="1" parent="1">
          <mxGeometry x="547" y="200" width="80" height="20" as="geometry" />
        </mxCell>
        <mxCell id="wO4F3rLJqFVepw0rZsP_-4" value="6" style="align=center;strokeColor=#000000;html=1;" vertex="1" parent="1">
          <mxGeometry x="547" y="220" width="80" height="20" as="geometry" />
        </mxCell>
        <mxCell id="wO4F3rLJqFVepw0rZsP_-5" value="SubmissÃ£o" style="strokeWidth=1;fontStyle=0;html=1;" vertex="1" parent="1">
          <mxGeometry x="547" y="140" width="80" height="20" as="geometry" />
        </mxCell>
        <mxCell id="wO4F3rLJqFVepw0rZsP_-6" value="" style="align=left;strokeColor=#000000;html=1;" vertex="1" parent="1">
          <mxGeometry x="627" y="160" width="1323" height="20" as="geometry" />
        </mxCell>
        <mxCell id="wO4F3rLJqFVepw0rZsP_-7" value="T1" style="strokeWidth=1;fontStyle=0;html=1;" vertex="1" parent="1">
          <mxGeometry x="627" y="140" width="70" height="20" as="geometry" />
        </mxCell>
        <mxCell id="wO4F3rLJqFVepw0rZsP_-8" value="T2" style="strokeWidth=1;fontStyle=0;html=1;" vertex="1" parent="1">
          <mxGeometry x="697" y="140" width="70" height="20" as="geometry" />
        </mxCell>
        <mxCell id="wO4F3rLJqFVepw0rZsP_-9" value="T3" style="strokeWidth=1;fontStyle=0;html=1;" vertex="1" parent="1">
          <mxGeometry x="767" y="140" width="70" height="20" as="geometry" />
        </mxCell>
        <mxCell id="wO4F3rLJqFVepw0rZsP_-10" value="T4" style="strokeWidth=1;fontStyle=0;html=1;" vertex="1" parent="1">
          <mxGeometry x="837" y="140" width="70" height="20" as="geometry" />
        </mxCell>
        <mxCell id="wO4F3rLJqFVepw0rZsP_-11" value="T5" style="strokeWidth=1;fontStyle=0;html=1;" vertex="1" parent="1">
          <mxGeometry x="907" y="140" width="70" height="20" as="geometry" />
        </mxCell>
        <mxCell id="wO4F3rLJqFVepw0rZsP_-12" value="T6" style="strokeWidth=1;fontStyle=0;html=1;" vertex="1" parent="1">
          <mxGeometry x="977" y="140" width="70" height="20" as="geometry" />
        </mxCell>
        <mxCell id="wO4F3rLJqFVepw0rZsP_-13" value="T7" style="strokeWidth=1;fontStyle=0;html=1;" vertex="1" parent="1">
          <mxGeometry x="1047" y="140" width="70" height="20" as="geometry" />
        </mxCell>
        <mxCell id="wO4F3rLJqFVepw0rZsP_-14" value="T8" style="strokeWidth=1;fontStyle=0;html=1;" vertex="1" parent="1">
          <mxGeometry x="1117" y="140" width="70" height="20" as="geometry" />
        </mxCell>
        <mxCell id="wO4F3rLJqFVepw0rZsP_-15" value="T9" style="strokeWidth=1;fontStyle=0;html=1;" vertex="1" parent="1">
          <mxGeometry x="1187" y="140" width="70" height="20" as="geometry" />
        </mxCell>
        <mxCell id="wO4F3rLJqFVepw0rZsP_-16" value="T10" style="strokeWidth=1;fontStyle=0;html=1;" vertex="1" parent="1">
          <mxGeometry x="1257" y="140" width="70" height="20" as="geometry" />
        </mxCell>
        <mxCell id="wO4F3rLJqFVepw0rZsP_-17" value="T11" style="strokeWidth=1;fontStyle=0;html=1;" vertex="1" parent="1">
          <mxGeometry x="1327" y="140" width="70" height="20" as="geometry" />
        </mxCell>
        <mxCell id="wO4F3rLJqFVepw0rZsP_-18" value="T12" style="strokeWidth=1;fontStyle=0;html=1;" vertex="1" parent="1">
          <mxGeometry x="1397" y="140" width="63" height="20" as="geometry" />
        </mxCell>
        <mxCell id="wO4F3rLJqFVepw0rZsP_-19" value="" style="align=left;strokeColor=#000000;html=1;" vertex="1" parent="1">
          <mxGeometry x="627" y="180" width="1323" height="20" as="geometry" />
        </mxCell>
        <mxCell id="wO4F3rLJqFVepw0rZsP_-20" value="" style="align=left;strokeColor=#000000;html=1;" vertex="1" parent="1">
          <mxGeometry x="627" y="200" width="1323" height="20" as="geometry" />
        </mxCell>
        <mxCell id="wO4F3rLJqFVepw0rZsP_-21" value="" style="align=left;strokeColor=#000000;html=1;" vertex="1" parent="1">
          <mxGeometry x="627" y="220" width="1323" height="20" as="geometry" />
        </mxCell>
        <mxCell id="wO4F3rLJqFVepw0rZsP_-22" value="P1" style="align=center;strokeColor=#000000;html=1;" vertex="1" parent="1">
          <mxGeometry x="390" y="160" width="80" height="20" as="geometry" />
        </mxCell>
        <mxCell id="wO4F3rLJqFVepw0rZsP_-23" value="P2" style="align=center;strokeColor=#000000;html=1;" vertex="1" parent="1">
          <mxGeometry x="390" y="180" width="80" height="20" as="geometry" />
        </mxCell>
        <mxCell id="wO4F3rLJqFVepw0rZsP_-24" value="P3" style="align=center;strokeColor=#000000;html=1;" vertex="1" parent="1">
          <mxGeometry x="390" y="200" width="80" height="20" as="geometry" />
        </mxCell>
        <mxCell id="wO4F3rLJqFVepw0rZsP_-25" value="P4" style="align=center;strokeColor=#000000;html=1;" vertex="1" parent="1">
          <mxGeometry x="390" y="220" width="80" height="20" as="geometry" />
        </mxCell>
        <mxCell id="wO4F3rLJqFVepw0rZsP_-26" value="Processo" style="strokeWidth=1;fontStyle=0;html=1;" vertex="1" parent="1">
          <mxGeometry x="390" y="140" width="80" height="20" as="geometry" />
        </mxCell>
        <mxCell id="wO4F3rLJqFVepw0rZsP_-27" value="4" style="align=center;strokeColor=#000000;html=1;" vertex="1" parent="1">
          <mxGeometry x="470" y="160" width="77" height="20" as="geometry" />
        </mxCell>
        <mxCell id="wO4F3rLJqFVepw0rZsP_-28" value="2" style="align=center;strokeColor=#000000;html=1;" vertex="1" parent="1">
          <mxGeometry x="470" y="180" width="77" height="20" as="geometry" />
        </mxCell>
        <mxCell id="wO4F3rLJqFVepw0rZsP_-29" value="6" style="align=center;strokeColor=#000000;html=1;" vertex="1" parent="1">
          <mxGeometry x="470" y="200" width="77" height="20" as="geometry" />
        </mxCell>
        <mxCell id="wO4F3rLJqFVepw0rZsP_-30" value="3" style="align=center;strokeColor=#000000;html=1;" vertex="1" parent="1">
          <mxGeometry x="470" y="220" width="77" height="20" as="geometry" />
        </mxCell>
        <mxCell id="wO4F3rLJqFVepw0rZsP_-31" value="Prioridade" style="strokeWidth=1;fontStyle=0;html=1;" vertex="1" parent="1">
          <mxGeometry x="470" y="140" width="77" height="20" as="geometry" />
        </mxCell>
        <mxCell id="wO4F3rLJqFVepw0rZsP_-32" value="T13" style="strokeWidth=1;fontStyle=0;html=1;" vertex="1" parent="1">
          <mxGeometry x="1460" y="140" width="70" height="20" as="geometry" />
        </mxCell>
        <mxCell id="wO4F3rLJqFVepw0rZsP_-33" value="T14" style="strokeWidth=1;fontStyle=0;html=1;" vertex="1" parent="1">
          <mxGeometry x="1530" y="140" width="70" height="20" as="geometry" />
        </mxCell>
        <mxCell id="wO4F3rLJqFVepw0rZsP_-34" value="T15" style="strokeWidth=1;fontStyle=0;html=1;" vertex="1" parent="1">
          <mxGeometry x="1600" y="140" width="70" height="20" as="geometry" />
        </mxCell>
        <mxCell id="wO4F3rLJqFVepw0rZsP_-35" value="T16" style="strokeWidth=1;fontStyle=0;html=1;" vertex="1" parent="1">
          <mxGeometry x="1670" y="140" width="70" height="20" as="geometry" />
        </mxCell>
        <mxCell id="wO4F3rLJqFVepw0rZsP_-36" value="T17" style="strokeWidth=1;fontStyle=0;html=1;" vertex="1" parent="1">
          <mxGeometry x="1740" y="140" width="70" height="20" as="geometry" />
        </mxCell>
        <mxCell id="wO4F3rLJqFVepw0rZsP_-37" value="T18" style="strokeWidth=1;fontStyle=0;html=1;" vertex="1" parent="1">
          <mxGeometry x="1810" y="140" width="70" height="20" as="geometry" />
        </mxCell>
        <mxCell id="wO4F3rLJqFVepw0rZsP_-38" value="T19" style="strokeWidth=1;fontStyle=0;html=1;" vertex="1" parent="1">
          <mxGeometry x="1880" y="140" width="70" height="20" as="geometry" />
        </mxCell>
        <mxCell id="wO4F3rLJqFVepw0rZsP_-40" value="CPU" style="strokeWidth=1;fontStyle=0;html=1;fillColor=#0050ef;fontColor=#ffffff;strokeColor=#000000;" vertex="1" parent="1">
          <mxGeometry x="390" y="270" width="70" height="20" as="geometry" />
        </mxCell>
        <mxCell id="wO4F3rLJqFVepw0rZsP_-41" value="IO" style="strokeWidth=1;fontStyle=0;html=1;fillColor=#e3c800;fontColor=#000000;strokeColor=#000000;" vertex="1" parent="1">
          <mxGeometry x="390" y="290" width="70" height="20" as="geometry" />
        </mxCell>
        <mxCell id="wO4F3rLJqFVepw0rZsP_-48" value="" style="strokeWidth=1;fontStyle=0;html=1;fillColor=#0050ef;fontColor=#ffffff;strokeColor=#001DBC;" vertex="1" parent="1">
          <mxGeometry x="627" y="160" width="70" height="20" as="geometry" />
        </mxCell>
        <mxCell id="wO4F3rLJqFVepw0rZsP_-49" value="" style="strokeWidth=1;fontStyle=0;html=1;fillColor=#e3c800;fontColor=#000000;strokeColor=#B09500;" vertex="1" parent="1">
          <mxGeometry x="697" y="160" width="70" height="20" as="geometry" />
        </mxCell>
        <mxCell id="wO4F3rLJqFVepw0rZsP_-74" value="" style="strokeWidth=1;fontStyle=0;html=1;fillColor=#0050ef;fontColor=#ffffff;strokeColor=#001DBC;" vertex="1" parent="1">
          <mxGeometry x="697" y="180" width="70" height="20" as="geometry" />
        </mxCell>
        <mxCell id="wO4F3rLJqFVepw0rZsP_-75" value="" style="strokeWidth=1;fontStyle=0;html=1;fillColor=#0050ef;fontColor=#ffffff;strokeColor=#001DBC;" vertex="1" parent="1">
          <mxGeometry x="767" y="180" width="70" height="20" as="geometry" />
        </mxCell>
        <mxCell id="wO4F3rLJqFVepw0rZsP_-76" value="" style="strokeWidth=1;fontStyle=0;html=1;fillColor=#0050ef;fontColor=#ffffff;strokeColor=#001DBC;" vertex="1" parent="1">
          <mxGeometry x="837" y="180" width="70" height="20" as="geometry" />
        </mxCell>
        <mxCell id="wO4F3rLJqFVepw0rZsP_-77" value="" style="strokeWidth=1;fontStyle=0;html=1;fillColor=#e3c800;fontColor=#000000;strokeColor=#B09500;" vertex="1" parent="1">
          <mxGeometry x="907" y="180" width="70" height="20" as="geometry" />
        </mxCell>
        <mxCell id="Aq__COj8szI9IogcZwgG-1" value="" style="strokeWidth=1;fontStyle=0;html=1;fillColor=#0050ef;fontColor=#ffffff;strokeColor=#001DBC;" vertex="1" parent="1">
          <mxGeometry x="907" y="160" width="70" height="20" as="geometry" />
        </mxCell>
        <mxCell id="Aq__COj8szI9IogcZwgG-2" value="" style="strokeWidth=1;fontStyle=0;html=1;fillColor=#e3c800;fontColor=#000000;strokeColor=#B09500;" vertex="1" parent="1">
          <mxGeometry x="977" y="160" width="70" height="20" as="geometry" />
        </mxCell>
        <mxCell id="Aq__COj8szI9IogcZwgG-3" value="" style="strokeWidth=1;fontStyle=0;html=1;fillColor=#0050ef;fontColor=#ffffff;strokeColor=#001DBC;" vertex="1" parent="1">
          <mxGeometry x="977" y="200" width="70" height="20" as="geometry" />
        </mxCell>
        <mxCell id="Aq__COj8szI9IogcZwgG-4" value="" style="strokeWidth=1;fontStyle=0;html=1;fillColor=#0050ef;fontColor=#ffffff;strokeColor=#001DBC;" vertex="1" parent="1">
          <mxGeometry x="1047" y="200" width="70" height="20" as="geometry" />
        </mxCell>
        <mxCell id="Aq__COj8szI9IogcZwgG-5" value="" style="strokeWidth=1;fontStyle=0;html=1;fillColor=#0050ef;fontColor=#ffffff;strokeColor=#001DBC;" vertex="1" parent="1">
          <mxGeometry x="1117" y="200" width="70" height="20" as="geometry" />
        </mxCell>
        <mxCell id="Aq__COj8szI9IogcZwgG-6" value="" style="strokeWidth=1;fontStyle=0;html=1;fillColor=#0050ef;fontColor=#ffffff;strokeColor=#001DBC;" vertex="1" parent="1">
          <mxGeometry x="1187" y="200" width="70" height="20" as="geometry" />
        </mxCell>
        <mxCell id="Aq__COj8szI9IogcZwgG-7" value="" style="strokeWidth=1;fontStyle=0;html=1;fillColor=#e3c800;fontColor=#000000;strokeColor=#B09500;" vertex="1" parent="1">
          <mxGeometry x="1257" y="200" width="70" height="20" as="geometry" />
        </mxCell>
        <mxCell id="Aq__COj8szI9IogcZwgG-8" value="" style="strokeWidth=1;fontStyle=0;html=1;fillColor=#e3c800;fontColor=#000000;strokeColor=#B09500;" vertex="1" parent="1">
          <mxGeometry x="1327" y="200" width="70" height="20" as="geometry" />
        </mxCell>
        <mxCell id="Aq__COj8szI9IogcZwgG-9" value="" style="strokeWidth=1;fontStyle=0;html=1;fillColor=#e3c800;fontColor=#000000;strokeColor=#B09500;" vertex="1" parent="1">
          <mxGeometry x="1397" y="200" width="63" height="20" as="geometry" />
        </mxCell>
        <mxCell id="Aq__COj8szI9IogcZwgG-10" value="" style="strokeWidth=1;fontStyle=0;html=1;fillColor=#e3c800;fontColor=#000000;strokeColor=#B09500;" vertex="1" parent="1">
          <mxGeometry x="1460" y="200" width="70" height="20" as="geometry" />
        </mxCell>
        <mxCell id="Aq__COj8szI9IogcZwgG-11" value="" style="strokeWidth=1;fontStyle=0;html=1;fillColor=#0050ef;fontColor=#ffffff;strokeColor=#001DBC;" vertex="1" parent="1">
          <mxGeometry x="1257" y="160" width="70" height="20" as="geometry" />
        </mxCell>
        <mxCell id="Aq__COj8szI9IogcZwgG-12" value="" style="strokeWidth=1;fontStyle=0;html=1;fillColor=#0050ef;fontColor=#ffffff;strokeColor=#001DBC;" vertex="1" parent="1">
          <mxGeometry x="1327" y="220" width="70" height="20" as="geometry" />
        </mxCell>
        <mxCell id="Aq__COj8szI9IogcZwgG-13" value="" style="strokeWidth=1;fontStyle=0;html=1;fillColor=#0050ef;fontColor=#ffffff;strokeColor=#001DBC;" vertex="1" parent="1">
          <mxGeometry x="1397" y="220" width="63" height="20" as="geometry" />
        </mxCell>
        <mxCell id="Aq__COj8szI9IogcZwgG-14" value="" style="strokeWidth=1;fontStyle=0;html=1;fillColor=#0050ef;fontColor=#ffffff;strokeColor=#001DBC;" vertex="1" parent="1">
          <mxGeometry x="1460" y="220" width="70" height="20" as="geometry" />
        </mxCell>
        <mxCell id="Aq__COj8szI9IogcZwgG-15" value="" style="strokeWidth=1;fontStyle=0;html=1;fillColor=#0050ef;fontColor=#ffffff;strokeColor=#001DBC;" vertex="1" parent="1">
          <mxGeometry x="1530" y="220" width="70" height="20" as="geometry" />
        </mxCell>
        <mxCell id="Aq__COj8szI9IogcZwgG-16" value="" style="strokeWidth=1;fontStyle=0;html=1;fillColor=#0050ef;fontColor=#ffffff;strokeColor=#001DBC;" vertex="1" parent="1">
          <mxGeometry x="1600" y="200" width="70" height="20" as="geometry" />
        </mxCell>
        <mxCell id="Aq__COj8szI9IogcZwgG-17" value="" style="strokeWidth=1;fontStyle=0;html=1;fillColor=#0050ef;fontColor=#ffffff;strokeColor=#001DBC;" vertex="1" parent="1">
          <mxGeometry x="1670" y="200" width="70" height="20" as="geometry" />
        </mxCell>
        <mxCell id="Aq__COj8szI9IogcZwgG-18" value="" style="strokeWidth=1;fontStyle=0;html=1;fillColor=#0050ef;fontColor=#ffffff;strokeColor=#001DBC;" vertex="1" parent="1">
          <mxGeometry x="1740" y="180" width="70" height="20" as="geometry" />
        </mxCell>
        <mxCell id="Aq__COj8szI9IogcZwgG-19" value="" style="strokeWidth=1;fontStyle=0;html=1;fillColor=#0050ef;fontColor=#ffffff;strokeColor=#001DBC;" vertex="1" parent="1">
          <mxGeometry x="1810" y="180" width="70" height="20" as="geometry" />
        </mxCell>
        <mxCell id="Aq__COj8szI9IogcZwgG-20" value="" style="strokeWidth=1;fontStyle=0;html=1;fillColor=#0050ef;fontColor=#ffffff;strokeColor=#001DBC;" vertex="1" parent="1">
          <mxGeometry x="1880" y="180" width="70" height="20" as="geometry" />
        </mxCell>
      </root>
    </mxGraphModel>
  </diagram>
  <diagram id="0wIxk2eaYBT3UAI7HEbe" name="Prio-Preemp">
    <mxGraphModel dx="913" dy="492" grid="1" gridSize="10" guides="1" tooltips="1" connect="1" arrows="1" fold="1" page="1" pageScale="1" pageWidth="850" pageHeight="1100" math="0" shadow="0">
      <root>
        <mxCell id="0" />
        <mxCell id="1" parent="0" />
        <mxCell id="XM8XSRxJpbdPvr2YznEd-1" value="0" style="align=center;strokeColor=#000000;html=1;" vertex="1" parent="1">
          <mxGeometry x="547" y="160" width="80" height="20" as="geometry" />
        </mxCell>
        <mxCell id="XM8XSRxJpbdPvr2YznEd-2" value="0" style="align=center;strokeColor=#000000;html=1;" vertex="1" parent="1">
          <mxGeometry x="547" y="180" width="80" height="20" as="geometry" />
        </mxCell>
        <mxCell id="XM8XSRxJpbdPvr2YznEd-3" value="3" style="align=center;strokeColor=#000000;html=1;" vertex="1" parent="1">
          <mxGeometry x="547" y="200" width="80" height="20" as="geometry" />
        </mxCell>
        <mxCell id="XM8XSRxJpbdPvr2YznEd-4" value="6" style="align=center;strokeColor=#000000;html=1;" vertex="1" parent="1">
          <mxGeometry x="547" y="220" width="80" height="20" as="geometry" />
        </mxCell>
        <mxCell id="XM8XSRxJpbdPvr2YznEd-5" value="SubmissÃ£o" style="strokeWidth=1;fontStyle=0;html=1;" vertex="1" parent="1">
          <mxGeometry x="547" y="140" width="80" height="20" as="geometry" />
        </mxCell>
        <mxCell id="XM8XSRxJpbdPvr2YznEd-6" value="" style="align=left;strokeColor=#000000;html=1;" vertex="1" parent="1">
          <mxGeometry x="627" y="160" width="1393" height="20" as="geometry" />
        </mxCell>
        <mxCell id="XM8XSRxJpbdPvr2YznEd-7" value="T1" style="strokeWidth=1;fontStyle=0;html=1;" vertex="1" parent="1">
          <mxGeometry x="627" y="140" width="70" height="20" as="geometry" />
        </mxCell>
        <mxCell id="XM8XSRxJpbdPvr2YznEd-8" value="T2" style="strokeWidth=1;fontStyle=0;html=1;" vertex="1" parent="1">
          <mxGeometry x="697" y="140" width="70" height="20" as="geometry" />
        </mxCell>
        <mxCell id="XM8XSRxJpbdPvr2YznEd-9" value="T3" style="strokeWidth=1;fontStyle=0;html=1;" vertex="1" parent="1">
          <mxGeometry x="767" y="140" width="70" height="20" as="geometry" />
        </mxCell>
        <mxCell id="XM8XSRxJpbdPvr2YznEd-10" value="T4" style="strokeWidth=1;fontStyle=0;html=1;" vertex="1" parent="1">
          <mxGeometry x="837" y="140" width="70" height="20" as="geometry" />
        </mxCell>
        <mxCell id="XM8XSRxJpbdPvr2YznEd-11" value="T5" style="strokeWidth=1;fontStyle=0;html=1;" vertex="1" parent="1">
          <mxGeometry x="907" y="140" width="70" height="20" as="geometry" />
        </mxCell>
        <mxCell id="XM8XSRxJpbdPvr2YznEd-12" value="T6" style="strokeWidth=1;fontStyle=0;html=1;" vertex="1" parent="1">
          <mxGeometry x="977" y="140" width="70" height="20" as="geometry" />
        </mxCell>
        <mxCell id="XM8XSRxJpbdPvr2YznEd-13" value="T7" style="strokeWidth=1;fontStyle=0;html=1;" vertex="1" parent="1">
          <mxGeometry x="1047" y="140" width="70" height="20" as="geometry" />
        </mxCell>
        <mxCell id="XM8XSRxJpbdPvr2YznEd-14" value="T8" style="strokeWidth=1;fontStyle=0;html=1;" vertex="1" parent="1">
          <mxGeometry x="1117" y="140" width="70" height="20" as="geometry" />
        </mxCell>
        <mxCell id="XM8XSRxJpbdPvr2YznEd-15" value="T9" style="strokeWidth=1;fontStyle=0;html=1;" vertex="1" parent="1">
          <mxGeometry x="1187" y="140" width="70" height="20" as="geometry" />
        </mxCell>
        <mxCell id="XM8XSRxJpbdPvr2YznEd-16" value="T10" style="strokeWidth=1;fontStyle=0;html=1;" vertex="1" parent="1">
          <mxGeometry x="1257" y="140" width="70" height="20" as="geometry" />
        </mxCell>
        <mxCell id="XM8XSRxJpbdPvr2YznEd-17" value="T11" style="strokeWidth=1;fontStyle=0;html=1;" vertex="1" parent="1">
          <mxGeometry x="1327" y="140" width="70" height="20" as="geometry" />
        </mxCell>
        <mxCell id="XM8XSRxJpbdPvr2YznEd-18" value="T12" style="strokeWidth=1;fontStyle=0;html=1;" vertex="1" parent="1">
          <mxGeometry x="1397" y="140" width="63" height="20" as="geometry" />
        </mxCell>
        <mxCell id="XM8XSRxJpbdPvr2YznEd-19" value="" style="align=left;strokeColor=#000000;html=1;" vertex="1" parent="1">
          <mxGeometry x="627" y="180" width="1323" height="20" as="geometry" />
        </mxCell>
        <mxCell id="XM8XSRxJpbdPvr2YznEd-20" value="" style="align=left;strokeColor=#000000;html=1;" vertex="1" parent="1">
          <mxGeometry x="627" y="200" width="1393" height="20" as="geometry" />
        </mxCell>
        <mxCell id="XM8XSRxJpbdPvr2YznEd-21" value="" style="align=left;strokeColor=#000000;html=1;" vertex="1" parent="1">
          <mxGeometry x="627" y="220" width="1393" height="20" as="geometry" />
        </mxCell>
        <mxCell id="XM8XSRxJpbdPvr2YznEd-22" value="P1" style="align=center;strokeColor=#000000;html=1;" vertex="1" parent="1">
          <mxGeometry x="390" y="160" width="80" height="20" as="geometry" />
        </mxCell>
        <mxCell id="XM8XSRxJpbdPvr2YznEd-23" value="P2" style="align=center;strokeColor=#000000;html=1;" vertex="1" parent="1">
          <mxGeometry x="390" y="180" width="80" height="20" as="geometry" />
        </mxCell>
        <mxCell id="XM8XSRxJpbdPvr2YznEd-24" value="P3" style="align=center;strokeColor=#000000;html=1;" vertex="1" parent="1">
          <mxGeometry x="390" y="200" width="80" height="20" as="geometry" />
        </mxCell>
        <mxCell id="XM8XSRxJpbdPvr2YznEd-25" value="P4" style="align=center;strokeColor=#000000;html=1;" vertex="1" parent="1">
          <mxGeometry x="390" y="220" width="80" height="20" as="geometry" />
        </mxCell>
        <mxCell id="XM8XSRxJpbdPvr2YznEd-26" value="Processo" style="strokeWidth=1;fontStyle=0;html=1;" vertex="1" parent="1">
          <mxGeometry x="390" y="140" width="80" height="20" as="geometry" />
        </mxCell>
        <mxCell id="XM8XSRxJpbdPvr2YznEd-27" value="4" style="align=center;strokeColor=#000000;html=1;" vertex="1" parent="1">
          <mxGeometry x="470" y="160" width="77" height="20" as="geometry" />
        </mxCell>
        <mxCell id="XM8XSRxJpbdPvr2YznEd-28" value="2" style="align=center;strokeColor=#000000;html=1;" vertex="1" parent="1">
          <mxGeometry x="470" y="180" width="77" height="20" as="geometry" />
        </mxCell>
        <mxCell id="XM8XSRxJpbdPvr2YznEd-29" value="6" style="align=center;strokeColor=#000000;html=1;" vertex="1" parent="1">
          <mxGeometry x="470" y="200" width="77" height="20" as="geometry" />
        </mxCell>
        <mxCell id="XM8XSRxJpbdPvr2YznEd-30" value="3" style="align=center;strokeColor=#000000;html=1;" vertex="1" parent="1">
          <mxGeometry x="470" y="220" width="77" height="20" as="geometry" />
        </mxCell>
        <mxCell id="XM8XSRxJpbdPvr2YznEd-31" value="Prioridade" style="strokeWidth=1;fontStyle=0;html=1;" vertex="1" parent="1">
          <mxGeometry x="470" y="140" width="77" height="20" as="geometry" />
        </mxCell>
        <mxCell id="XM8XSRxJpbdPvr2YznEd-32" value="T13" style="strokeWidth=1;fontStyle=0;html=1;" vertex="1" parent="1">
          <mxGeometry x="1460" y="140" width="70" height="20" as="geometry" />
        </mxCell>
        <mxCell id="XM8XSRxJpbdPvr2YznEd-33" value="T14" style="strokeWidth=1;fontStyle=0;html=1;" vertex="1" parent="1">
          <mxGeometry x="1530" y="140" width="70" height="20" as="geometry" />
        </mxCell>
        <mxCell id="XM8XSRxJpbdPvr2YznEd-34" value="T15" style="strokeWidth=1;fontStyle=0;html=1;" vertex="1" parent="1">
          <mxGeometry x="1600" y="140" width="70" height="20" as="geometry" />
        </mxCell>
        <mxCell id="XM8XSRxJpbdPvr2YznEd-35" value="T16" style="strokeWidth=1;fontStyle=0;html=1;" vertex="1" parent="1">
          <mxGeometry x="1670" y="140" width="70" height="20" as="geometry" />
        </mxCell>
        <mxCell id="XM8XSRxJpbdPvr2YznEd-36" value="T17" style="strokeWidth=1;fontStyle=0;html=1;" vertex="1" parent="1">
          <mxGeometry x="1740" y="140" width="70" height="20" as="geometry" />
        </mxCell>
        <mxCell id="XM8XSRxJpbdPvr2YznEd-37" value="T18" style="strokeWidth=1;fontStyle=0;html=1;" vertex="1" parent="1">
          <mxGeometry x="1810" y="140" width="70" height="20" as="geometry" />
        </mxCell>
        <mxCell id="XM8XSRxJpbdPvr2YznEd-38" value="T19" style="strokeWidth=1;fontStyle=0;html=1;" vertex="1" parent="1">
          <mxGeometry x="1880" y="140" width="70" height="20" as="geometry" />
        </mxCell>
        <mxCell id="XM8XSRxJpbdPvr2YznEd-39" value="CPU" style="strokeWidth=1;fontStyle=0;html=1;fillColor=#0050ef;fontColor=#ffffff;strokeColor=#000000;" vertex="1" parent="1">
          <mxGeometry x="390" y="270" width="70" height="20" as="geometry" />
        </mxCell>
        <mxCell id="XM8XSRxJpbdPvr2YznEd-40" value="IO" style="strokeWidth=1;fontStyle=0;html=1;fillColor=#e3c800;fontColor=#000000;strokeColor=#000000;" vertex="1" parent="1">
          <mxGeometry x="390" y="290" width="70" height="20" as="geometry" />
        </mxCell>
        <mxCell id="XM8XSRxJpbdPvr2YznEd-67" value="" style="strokeWidth=1;fontStyle=0;html=1;fillColor=#0050ef;fontColor=#ffffff;strokeColor=#001DBC;" vertex="1" parent="1">
          <mxGeometry x="627" y="160" width="70" height="20" as="geometry" />
        </mxCell>
        <mxCell id="XM8XSRxJpbdPvr2YznEd-68" value="" style="strokeWidth=1;fontStyle=0;html=1;fillColor=#e3c800;fontColor=#000000;strokeColor=#B09500;" vertex="1" parent="1">
          <mxGeometry x="697" y="160" width="70" height="20" as="geometry" />
        </mxCell>
        <mxCell id="XM8XSRxJpbdPvr2YznEd-69" value="" style="strokeWidth=1;fontStyle=0;html=1;fillColor=#0050ef;fontColor=#ffffff;strokeColor=#001DBC;" vertex="1" parent="1">
          <mxGeometry x="697" y="180" width="70" height="20" as="geometry" />
        </mxCell>
        <mxCell id="XM8XSRxJpbdPvr2YznEd-71" value="" style="strokeWidth=1;fontStyle=0;html=1;fillColor=#0050ef;fontColor=#ffffff;strokeColor=#001DBC;" vertex="1" parent="1">
          <mxGeometry x="767" y="160" width="70" height="20" as="geometry" />
        </mxCell>
        <mxCell id="XM8XSRxJpbdPvr2YznEd-72" value="" style="strokeWidth=1;fontStyle=0;html=1;fillColor=#0050ef;fontColor=#ffffff;strokeColor=#001DBC;" vertex="1" parent="1">
          <mxGeometry x="837" y="200" width="70" height="20" as="geometry" />
        </mxCell>
        <mxCell id="XM8XSRxJpbdPvr2YznEd-73" value="" style="strokeWidth=1;fontStyle=0;html=1;fillColor=#0050ef;fontColor=#ffffff;strokeColor=#001DBC;" vertex="1" parent="1">
          <mxGeometry x="907" y="200" width="70" height="20" as="geometry" />
        </mxCell>
        <mxCell id="XM8XSRxJpbdPvr2YznEd-74" value="" style="strokeWidth=1;fontStyle=0;html=1;fillColor=#0050ef;fontColor=#ffffff;strokeColor=#001DBC;" vertex="1" parent="1">
          <mxGeometry x="977" y="200" width="70" height="20" as="geometry" />
        </mxCell>
        <mxCell id="XM8XSRxJpbdPvr2YznEd-75" value="" style="strokeWidth=1;fontStyle=0;html=1;fillColor=#0050ef;fontColor=#ffffff;strokeColor=#001DBC;" vertex="1" parent="1">
          <mxGeometry x="1047" y="200" width="70" height="20" as="geometry" />
        </mxCell>
        <mxCell id="XM8XSRxJpbdPvr2YznEd-76" value="" style="strokeWidth=1;fontStyle=0;html=1;fillColor=#e3c800;fontColor=#000000;strokeColor=#B09500;" vertex="1" parent="1">
          <mxGeometry x="1117" y="200" width="70" height="20" as="geometry" />
        </mxCell>
        <mxCell id="XM8XSRxJpbdPvr2YznEd-77" value="" style="strokeWidth=1;fontStyle=0;html=1;fillColor=#e3c800;fontColor=#000000;strokeColor=#B09500;" vertex="1" parent="1">
          <mxGeometry x="1187" y="200" width="70" height="20" as="geometry" />
        </mxCell>
        <mxCell id="XM8XSRxJpbdPvr2YznEd-78" value="" style="strokeWidth=1;fontStyle=0;html=1;fillColor=#e3c800;fontColor=#000000;strokeColor=#B09500;" vertex="1" parent="1">
          <mxGeometry x="1257" y="200" width="70" height="20" as="geometry" />
        </mxCell>
        <mxCell id="XM8XSRxJpbdPvr2YznEd-79" value="" style="strokeWidth=1;fontStyle=0;html=1;fillColor=#e3c800;fontColor=#000000;strokeColor=#B09500;" vertex="1" parent="1">
          <mxGeometry x="1327" y="200" width="70" height="20" as="geometry" />
        </mxCell>
        <mxCell id="XM8XSRxJpbdPvr2YznEd-80" value="" style="strokeWidth=1;fontStyle=0;html=1;fillColor=#e3c800;fontColor=#000000;strokeColor=#B09500;" vertex="1" parent="1">
          <mxGeometry x="837" y="160" width="70" height="20" as="geometry" />
        </mxCell>
        <mxCell id="XM8XSRxJpbdPvr2YznEd-81" value="" style="strokeWidth=1;fontStyle=0;html=1;fillColor=#0050ef;fontColor=#ffffff;strokeColor=#001DBC;" vertex="1" parent="1">
          <mxGeometry x="1117" y="160" width="70" height="20" as="geometry" />
        </mxCell>
        <mxCell id="XM8XSRxJpbdPvr2YznEd-82" value="" style="strokeWidth=1;fontStyle=0;html=1;fillColor=#0050ef;fontColor=#ffffff;strokeColor=#001DBC;" vertex="1" parent="1">
          <mxGeometry x="1187" y="220" width="70" height="20" as="geometry" />
        </mxCell>
        <mxCell id="XM8XSRxJpbdPvr2YznEd-83" value="" style="strokeWidth=1;fontStyle=0;html=1;fillColor=#0050ef;fontColor=#ffffff;strokeColor=#001DBC;" vertex="1" parent="1">
          <mxGeometry x="1257" y="220" width="70" height="20" as="geometry" />
        </mxCell>
        <mxCell id="XM8XSRxJpbdPvr2YznEd-84" value="" style="strokeWidth=1;fontStyle=0;html=1;fillColor=#0050ef;fontColor=#ffffff;strokeColor=#001DBC;" vertex="1" parent="1">
          <mxGeometry x="1327" y="220" width="70" height="20" as="geometry" />
        </mxCell>
        <mxCell id="XM8XSRxJpbdPvr2YznEd-85" value="" style="strokeWidth=1;fontStyle=0;html=1;fillColor=#0050ef;fontColor=#ffffff;strokeColor=#001DBC;" vertex="1" parent="1">
          <mxGeometry x="1397" y="200" width="63" height="20" as="geometry" />
        </mxCell>
        <mxCell id="XM8XSRxJpbdPvr2YznEd-86" value="" style="strokeWidth=1;fontStyle=0;html=1;fillColor=#0050ef;fontColor=#ffffff;strokeColor=#001DBC;" vertex="1" parent="1">
          <mxGeometry x="1460" y="200" width="70" height="20" as="geometry" />
        </mxCell>
        <mxCell id="XM8XSRxJpbdPvr2YznEd-87" value="" style="strokeWidth=1;fontStyle=0;html=1;fillColor=#0050ef;fontColor=#ffffff;strokeColor=#001DBC;" vertex="1" parent="1">
          <mxGeometry x="1530" y="220" width="70" height="20" as="geometry" />
        </mxCell>
        <mxCell id="XM8XSRxJpbdPvr2YznEd-88" value="" style="strokeWidth=1;fontStyle=0;html=1;fillColor=#0050ef;fontColor=#ffffff;strokeColor=#001DBC;" vertex="1" parent="1">
          <mxGeometry x="1600" y="180" width="70" height="20" as="geometry" />
        </mxCell>
        <mxCell id="XM8XSRxJpbdPvr2YznEd-89" value="" style="strokeWidth=1;fontStyle=0;html=1;fillColor=#0050ef;fontColor=#ffffff;strokeColor=#001DBC;" vertex="1" parent="1">
          <mxGeometry x="1670" y="180" width="70" height="20" as="geometry" />
        </mxCell>
        <mxCell id="XM8XSRxJpbdPvr2YznEd-90" value="" style="strokeWidth=1;fontStyle=0;html=1;fillColor=#e3c800;fontColor=#000000;strokeColor=#B09500;" vertex="1" parent="1">
          <mxGeometry x="1740" y="180" width="70" height="20" as="geometry" />
        </mxCell>
        <mxCell id="XM8XSRxJpbdPvr2YznEd-91" value="" style="strokeWidth=1;fontStyle=0;html=1;fillColor=#0050ef;fontColor=#ffffff;strokeColor=#001DBC;" vertex="1" parent="1">
          <mxGeometry x="1810" y="180" width="70" height="20" as="geometry" />
        </mxCell>
        <mxCell id="XM8XSRxJpbdPvr2YznEd-92" value="" style="strokeWidth=1;fontStyle=0;html=1;fillColor=#0050ef;fontColor=#ffffff;strokeColor=#001DBC;" vertex="1" parent="1">
          <mxGeometry x="1880" y="180" width="70" height="20" as="geometry" />
        </mxCell>
        <mxCell id="XM8XSRxJpbdPvr2YznEd-93" value="" style="strokeWidth=1;fontStyle=0;html=1;fillColor=#0050ef;fontColor=#ffffff;strokeColor=#001DBC;" vertex="1" parent="1">
          <mxGeometry x="1950" y="180" width="70" height="20" as="geometry" />
        </mxCell>
        <mxCell id="XM8XSRxJpbdPvr2YznEd-94" value="T20" style="strokeWidth=1;fontStyle=0;html=1;" vertex="1" parent="1">
          <mxGeometry x="1950" y="140" width="70" height="20" as="geometry" />
        </mxCell>
      </root>
    </mxGraphModel>
  </diagram>
  <diagram id="7XhV5UYyGrlYsYN7Zh2h" name="RR">
    <mxGraphModel dx="875" dy="472" grid="1" gridSize="10" guides="1" tooltips="1" connect="1" arrows="1" fold="1" page="1" pageScale="1" pageWidth="850" pageHeight="1100" math="0" shadow="0">
      <root>
        <mxCell id="0" />
        <mxCell id="1" parent="0" />
        <mxCell id="4UnncWfJ5BWtlQnVNpPm-1" value="0" style="align=center;strokeColor=#000000;html=1;" parent="1" vertex="1">
          <mxGeometry x="547" y="160" width="80" height="20" as="geometry" />
        </mxCell>
        <mxCell id="4UnncWfJ5BWtlQnVNpPm-2" value="0" style="align=center;strokeColor=#000000;html=1;" parent="1" vertex="1">
          <mxGeometry x="547" y="180" width="80" height="20" as="geometry" />
        </mxCell>
        <mxCell id="4UnncWfJ5BWtlQnVNpPm-3" value="3" style="align=center;strokeColor=#000000;html=1;" parent="1" vertex="1">
          <mxGeometry x="547" y="200" width="80" height="20" as="geometry" />
        </mxCell>
        <mxCell id="4UnncWfJ5BWtlQnVNpPm-4" value="6" style="align=center;strokeColor=#000000;html=1;" parent="1" vertex="1">
          <mxGeometry x="547" y="220" width="80" height="20" as="geometry" />
        </mxCell>
        <mxCell id="4UnncWfJ5BWtlQnVNpPm-5" value="SubmissÃ£o" style="strokeWidth=1;fontStyle=0;html=1;" parent="1" vertex="1">
          <mxGeometry x="547" y="140" width="80" height="20" as="geometry" />
        </mxCell>
        <mxCell id="4UnncWfJ5BWtlQnVNpPm-6" value="" style="align=left;strokeColor=#000000;html=1;" parent="1" vertex="1">
          <mxGeometry x="627" y="160" width="1323" height="20" as="geometry" />
        </mxCell>
        <mxCell id="4UnncWfJ5BWtlQnVNpPm-7" value="T1" style="strokeWidth=1;fontStyle=0;html=1;" parent="1" vertex="1">
          <mxGeometry x="627" y="140" width="70" height="20" as="geometry" />
        </mxCell>
        <mxCell id="4UnncWfJ5BWtlQnVNpPm-8" value="T2" style="strokeWidth=1;fontStyle=0;html=1;" parent="1" vertex="1">
          <mxGeometry x="697" y="140" width="70" height="20" as="geometry" />
        </mxCell>
        <mxCell id="4UnncWfJ5BWtlQnVNpPm-9" value="T3" style="strokeWidth=1;fontStyle=0;html=1;" parent="1" vertex="1">
          <mxGeometry x="767" y="140" width="70" height="20" as="geometry" />
        </mxCell>
        <mxCell id="4UnncWfJ5BWtlQnVNpPm-10" value="T4" style="strokeWidth=1;fontStyle=0;html=1;" parent="1" vertex="1">
          <mxGeometry x="837" y="140" width="70" height="20" as="geometry" />
        </mxCell>
        <mxCell id="4UnncWfJ5BWtlQnVNpPm-11" value="T5" style="strokeWidth=1;fontStyle=0;html=1;" parent="1" vertex="1">
          <mxGeometry x="907" y="140" width="70" height="20" as="geometry" />
        </mxCell>
        <mxCell id="4UnncWfJ5BWtlQnVNpPm-12" value="T6" style="strokeWidth=1;fontStyle=0;html=1;" parent="1" vertex="1">
          <mxGeometry x="977" y="140" width="70" height="20" as="geometry" />
        </mxCell>
        <mxCell id="4UnncWfJ5BWtlQnVNpPm-13" value="T7" style="strokeWidth=1;fontStyle=0;html=1;" parent="1" vertex="1">
          <mxGeometry x="1047" y="140" width="70" height="20" as="geometry" />
        </mxCell>
        <mxCell id="4UnncWfJ5BWtlQnVNpPm-14" value="T8" style="strokeWidth=1;fontStyle=0;html=1;" parent="1" vertex="1">
          <mxGeometry x="1117" y="140" width="70" height="20" as="geometry" />
        </mxCell>
        <mxCell id="4UnncWfJ5BWtlQnVNpPm-15" value="T9" style="strokeWidth=1;fontStyle=0;html=1;" parent="1" vertex="1">
          <mxGeometry x="1187" y="140" width="70" height="20" as="geometry" />
        </mxCell>
        <mxCell id="4UnncWfJ5BWtlQnVNpPm-16" value="T10" style="strokeWidth=1;fontStyle=0;html=1;" parent="1" vertex="1">
          <mxGeometry x="1257" y="140" width="70" height="20" as="geometry" />
        </mxCell>
        <mxCell id="4UnncWfJ5BWtlQnVNpPm-17" value="T11" style="strokeWidth=1;fontStyle=0;html=1;" parent="1" vertex="1">
          <mxGeometry x="1327" y="140" width="70" height="20" as="geometry" />
        </mxCell>
        <mxCell id="4UnncWfJ5BWtlQnVNpPm-18" value="T12" style="strokeWidth=1;fontStyle=0;html=1;" parent="1" vertex="1">
          <mxGeometry x="1397" y="140" width="63" height="20" as="geometry" />
        </mxCell>
        <mxCell id="4UnncWfJ5BWtlQnVNpPm-19" value="" style="align=left;strokeColor=#000000;html=1;" parent="1" vertex="1">
          <mxGeometry x="627" y="180" width="1323" height="20" as="geometry" />
        </mxCell>
        <mxCell id="4UnncWfJ5BWtlQnVNpPm-20" value="" style="align=left;strokeColor=#000000;html=1;" parent="1" vertex="1">
          <mxGeometry x="627" y="200" width="1323" height="20" as="geometry" />
        </mxCell>
        <mxCell id="4UnncWfJ5BWtlQnVNpPm-21" value="" style="align=left;strokeColor=#000000;html=1;" parent="1" vertex="1">
          <mxGeometry x="627" y="220" width="1323" height="20" as="geometry" />
        </mxCell>
        <mxCell id="4UnncWfJ5BWtlQnVNpPm-22" value="P1" style="align=center;strokeColor=#000000;html=1;" parent="1" vertex="1">
          <mxGeometry x="390" y="160" width="80" height="20" as="geometry" />
        </mxCell>
        <mxCell id="4UnncWfJ5BWtlQnVNpPm-23" value="P2" style="align=center;strokeColor=#000000;html=1;" parent="1" vertex="1">
          <mxGeometry x="390" y="180" width="80" height="20" as="geometry" />
        </mxCell>
        <mxCell id="4UnncWfJ5BWtlQnVNpPm-24" value="P3" style="align=center;strokeColor=#000000;html=1;" parent="1" vertex="1">
          <mxGeometry x="390" y="200" width="80" height="20" as="geometry" />
        </mxCell>
        <mxCell id="4UnncWfJ5BWtlQnVNpPm-25" value="P4" style="align=center;strokeColor=#000000;html=1;" parent="1" vertex="1">
          <mxGeometry x="390" y="220" width="80" height="20" as="geometry" />
        </mxCell>
        <mxCell id="4UnncWfJ5BWtlQnVNpPm-26" value="Processo" style="strokeWidth=1;fontStyle=0;html=1;" parent="1" vertex="1">
          <mxGeometry x="390" y="140" width="80" height="20" as="geometry" />
        </mxCell>
        <mxCell id="4UnncWfJ5BWtlQnVNpPm-27" value="4" style="align=center;strokeColor=#000000;html=1;" parent="1" vertex="1">
          <mxGeometry x="470" y="160" width="77" height="20" as="geometry" />
        </mxCell>
        <mxCell id="4UnncWfJ5BWtlQnVNpPm-28" value="2" style="align=center;strokeColor=#000000;html=1;" parent="1" vertex="1">
          <mxGeometry x="470" y="180" width="77" height="20" as="geometry" />
        </mxCell>
        <mxCell id="4UnncWfJ5BWtlQnVNpPm-29" value="6" style="align=center;strokeColor=#000000;html=1;" parent="1" vertex="1">
          <mxGeometry x="470" y="200" width="77" height="20" as="geometry" />
        </mxCell>
        <mxCell id="4UnncWfJ5BWtlQnVNpPm-30" value="3" style="align=center;strokeColor=#000000;html=1;" parent="1" vertex="1">
          <mxGeometry x="470" y="220" width="77" height="20" as="geometry" />
        </mxCell>
        <mxCell id="4UnncWfJ5BWtlQnVNpPm-31" value="Prioridade" style="strokeWidth=1;fontStyle=0;html=1;" parent="1" vertex="1">
          <mxGeometry x="470" y="140" width="77" height="20" as="geometry" />
        </mxCell>
        <mxCell id="4UnncWfJ5BWtlQnVNpPm-32" value="T13" style="strokeWidth=1;fontStyle=0;html=1;" parent="1" vertex="1">
          <mxGeometry x="1460" y="140" width="70" height="20" as="geometry" />
        </mxCell>
        <mxCell id="4UnncWfJ5BWtlQnVNpPm-33" value="T14" style="strokeWidth=1;fontStyle=0;html=1;" parent="1" vertex="1">
          <mxGeometry x="1530" y="140" width="70" height="20" as="geometry" />
        </mxCell>
        <mxCell id="4UnncWfJ5BWtlQnVNpPm-34" value="T15" style="strokeWidth=1;fontStyle=0;html=1;" parent="1" vertex="1">
          <mxGeometry x="1600" y="140" width="70" height="20" as="geometry" />
        </mxCell>
        <mxCell id="4UnncWfJ5BWtlQnVNpPm-35" value="T16" style="strokeWidth=1;fontStyle=0;html=1;" parent="1" vertex="1">
          <mxGeometry x="1670" y="140" width="70" height="20" as="geometry" />
        </mxCell>
        <mxCell id="4UnncWfJ5BWtlQnVNpPm-36" value="T17" style="strokeWidth=1;fontStyle=0;html=1;" parent="1" vertex="1">
          <mxGeometry x="1740" y="140" width="70" height="20" as="geometry" />
        </mxCell>
        <mxCell id="4UnncWfJ5BWtlQnVNpPm-37" value="T18" style="strokeWidth=1;fontStyle=0;html=1;" parent="1" vertex="1">
          <mxGeometry x="1810" y="140" width="70" height="20" as="geometry" />
        </mxCell>
        <mxCell id="4UnncWfJ5BWtlQnVNpPm-38" value="T19" style="strokeWidth=1;fontStyle=0;html=1;" parent="1" vertex="1">
          <mxGeometry x="1880" y="140" width="70" height="20" as="geometry" />
        </mxCell>
        <mxCell id="4UnncWfJ5BWtlQnVNpPm-39" value="CPU" style="strokeWidth=1;fontStyle=0;html=1;fillColor=#0050ef;fontColor=#ffffff;strokeColor=#000000;" parent="1" vertex="1">
          <mxGeometry x="390" y="270" width="70" height="20" as="geometry" />
        </mxCell>
        <mxCell id="4UnncWfJ5BWtlQnVNpPm-40" value="IO" style="strokeWidth=1;fontStyle=0;html=1;fillColor=#e3c800;fontColor=#000000;strokeColor=#000000;" parent="1" vertex="1">
          <mxGeometry x="390" y="290" width="70" height="20" as="geometry" />
        </mxCell>
        <mxCell id="4UnncWfJ5BWtlQnVNpPm-70" value="" style="strokeWidth=1;fontStyle=0;html=1;fillColor=#0050ef;fontColor=#ffffff;strokeColor=#001DBC;" parent="1" vertex="1">
          <mxGeometry x="627" y="160" width="70" height="20" as="geometry" />
        </mxCell>
        <mxCell id="4UnncWfJ5BWtlQnVNpPm-71" value="" style="strokeWidth=1;fontStyle=0;html=1;fillColor=#e3c800;fontColor=#000000;strokeColor=#B09500;" parent="1" vertex="1">
          <mxGeometry x="697" y="160" width="70" height="20" as="geometry" />
        </mxCell>
        <mxCell id="4UnncWfJ5BWtlQnVNpPm-72" value="" style="strokeWidth=1;fontStyle=0;html=1;fillColor=#0050ef;fontColor=#ffffff;strokeColor=#001DBC;" parent="1" vertex="1">
          <mxGeometry x="697" y="180" width="70" height="20" as="geometry" />
        </mxCell>
        <mxCell id="4UnncWfJ5BWtlQnVNpPm-74" value="" style="strokeWidth=1;fontStyle=0;html=1;fillColor=#0050ef;fontColor=#ffffff;strokeColor=#001DBC;" parent="1" vertex="1">
          <mxGeometry x="767" y="180" width="70" height="20" as="geometry" />
        </mxCell>
        <mxCell id="4UnncWfJ5BWtlQnVNpPm-75" value="" style="strokeWidth=1;fontStyle=0;html=1;fillColor=#0050ef;fontColor=#ffffff;strokeColor=#001DBC;" parent="1" vertex="1">
          <mxGeometry x="837" y="160" width="70" height="20" as="geometry" />
        </mxCell>
        <mxCell id="4UnncWfJ5BWtlQnVNpPm-76" value="" style="strokeWidth=1;fontStyle=0;html=1;fillColor=#e3c800;fontColor=#000000;strokeColor=#B09500;" parent="1" vertex="1">
          <mxGeometry x="907" y="160" width="70" height="20" as="geometry" />
        </mxCell>
        <mxCell id="4UnncWfJ5BWtlQnVNpPm-79" value="" style="strokeWidth=1;fontStyle=0;html=1;fillColor=#0050ef;fontColor=#ffffff;strokeColor=#001DBC;" parent="1" vertex="1">
          <mxGeometry x="907" y="200" width="70" height="20" as="geometry" />
        </mxCell>
        <mxCell id="4UnncWfJ5BWtlQnVNpPm-80" value="" style="strokeWidth=1;fontStyle=0;html=1;fillColor=#0050ef;fontColor=#ffffff;strokeColor=#001DBC;" parent="1" vertex="1">
          <mxGeometry x="977" y="200" width="70" height="20" as="geometry" />
        </mxCell>
        <mxCell id="4UnncWfJ5BWtlQnVNpPm-81" value="" style="strokeWidth=1;fontStyle=0;html=1;fillColor=#0050ef;fontColor=#ffffff;strokeColor=#001DBC;" parent="1" vertex="1">
          <mxGeometry x="1047" y="180" width="70" height="20" as="geometry" />
        </mxCell>
        <mxCell id="4UnncWfJ5BWtlQnVNpPm-82" value="" style="strokeWidth=1;fontStyle=0;html=1;fillColor=#e3c800;fontColor=#000000;strokeColor=#B09500;" parent="1" vertex="1">
          <mxGeometry x="1117" y="180" width="70" height="20" as="geometry" />
        </mxCell>
        <mxCell id="4UnncWfJ5BWtlQnVNpPm-83" value="" style="strokeWidth=1;fontStyle=0;html=1;fillColor=#0050ef;fontColor=#ffffff;strokeColor=#001DBC;" parent="1" vertex="1">
          <mxGeometry x="1117" y="160" width="70" height="20" as="geometry" />
        </mxCell>
        <mxCell id="4UnncWfJ5BWtlQnVNpPm-84" value="" style="strokeWidth=1;fontStyle=0;html=1;fillColor=#0050ef;fontColor=#ffffff;strokeColor=#001DBC;" parent="1" vertex="1">
          <mxGeometry x="1187" y="220" width="70" height="20" as="geometry" />
        </mxCell>
        <mxCell id="4UnncWfJ5BWtlQnVNpPm-85" value="" style="strokeWidth=1;fontStyle=0;html=1;fillColor=#0050ef;fontColor=#ffffff;strokeColor=#001DBC;" parent="1" vertex="1">
          <mxGeometry x="1257" y="220" width="70" height="20" as="geometry" />
        </mxCell>
        <mxCell id="4UnncWfJ5BWtlQnVNpPm-86" value="" style="strokeWidth=1;fontStyle=0;html=1;fillColor=#0050ef;fontColor=#ffffff;strokeColor=#001DBC;" parent="1" vertex="1">
          <mxGeometry x="1327" y="200" width="70" height="20" as="geometry" />
        </mxCell>
        <mxCell id="4UnncWfJ5BWtlQnVNpPm-87" value="" style="strokeWidth=1;fontStyle=0;html=1;fillColor=#0050ef;fontColor=#ffffff;strokeColor=#001DBC;" parent="1" vertex="1">
          <mxGeometry x="1397" y="200" width="63" height="20" as="geometry" />
        </mxCell>
        <mxCell id="4UnncWfJ5BWtlQnVNpPm-88" value="" style="strokeWidth=1;fontStyle=0;html=1;fillColor=#0050ef;fontColor=#ffffff;strokeColor=#001DBC;" parent="1" vertex="1">
          <mxGeometry x="1460" y="180" width="70" height="20" as="geometry" />
        </mxCell>
        <mxCell id="4UnncWfJ5BWtlQnVNpPm-89" value="" style="strokeWidth=1;fontStyle=0;html=1;fillColor=#0050ef;fontColor=#ffffff;strokeColor=#001DBC;" parent="1" vertex="1">
          <mxGeometry x="1530" y="180" width="70" height="20" as="geometry" />
        </mxCell>
        <mxCell id="4UnncWfJ5BWtlQnVNpPm-90" value="" style="strokeWidth=1;fontStyle=0;html=1;fillColor=#0050ef;fontColor=#ffffff;strokeColor=#001DBC;" parent="1" vertex="1">
          <mxGeometry x="1600" y="220" width="70" height="20" as="geometry" />
        </mxCell>
        <mxCell id="4UnncWfJ5BWtlQnVNpPm-91" value="" style="strokeWidth=1;fontStyle=0;html=1;fillColor=#0050ef;fontColor=#ffffff;strokeColor=#001DBC;" parent="1" vertex="1">
          <mxGeometry x="1670" y="220" width="70" height="20" as="geometry" />
        </mxCell>
        <mxCell id="4UnncWfJ5BWtlQnVNpPm-92" value="" style="strokeWidth=1;fontStyle=0;html=1;fillColor=#e3c800;fontColor=#000000;strokeColor=#B09500;" parent="1" vertex="1">
          <mxGeometry x="1460" y="200" width="70" height="20" as="geometry" />
        </mxCell>
        <mxCell id="4UnncWfJ5BWtlQnVNpPm-93" value="" style="strokeWidth=1;fontStyle=0;html=1;fillColor=#e3c800;fontColor=#000000;strokeColor=#B09500;" parent="1" vertex="1">
          <mxGeometry x="1530" y="200" width="70" height="20" as="geometry" />
        </mxCell>
        <mxCell id="4UnncWfJ5BWtlQnVNpPm-94" value="" style="strokeWidth=1;fontStyle=0;html=1;fillColor=#e3c800;fontColor=#000000;strokeColor=#B09500;" parent="1" vertex="1">
          <mxGeometry x="1600" y="200" width="70" height="20" as="geometry" />
        </mxCell>
        <mxCell id="4UnncWfJ5BWtlQnVNpPm-95" value="" style="strokeWidth=1;fontStyle=0;html=1;fillColor=#e3c800;fontColor=#000000;strokeColor=#B09500;" parent="1" vertex="1">
          <mxGeometry x="1670" y="200" width="70" height="20" as="geometry" />
        </mxCell>
        <mxCell id="4UnncWfJ5BWtlQnVNpPm-96" value="" style="strokeWidth=1;fontStyle=0;html=1;fillColor=#0050ef;fontColor=#ffffff;strokeColor=#001DBC;" parent="1" vertex="1">
          <mxGeometry x="1880" y="180" width="70" height="20" as="geometry" />
        </mxCell>
        <mxCell id="4UnncWfJ5BWtlQnVNpPm-99" value="" style="strokeWidth=1;fontStyle=0;html=1;fillColor=#0050ef;fontColor=#ffffff;strokeColor=#001DBC;" parent="1" vertex="1">
          <mxGeometry x="1740" y="200" width="70" height="20" as="geometry" />
        </mxCell>
        <mxCell id="4UnncWfJ5BWtlQnVNpPm-100" value="" style="strokeWidth=1;fontStyle=0;html=1;fillColor=#0050ef;fontColor=#ffffff;strokeColor=#001DBC;" parent="1" vertex="1">
          <mxGeometry x="1810" y="200" width="70" height="20" as="geometry" />
        </mxCell>
      </root>
    </mxGraphModel>
  </diagram>
</mxfile>
